solid OpenSCAD_Model
  facet normal 1 -0 0
    outer loop
      vertex -2.6 -3.1 3
      vertex -2.6 3.1 1.7
      vertex -2.6 3.1 3
    endloop
  endfacet
  facet normal 1 0 0
    outer loop
      vertex -2.6 3.1 1.7
      vertex -2.6 -3.1 3
      vertex -2.6 -3.1 1.7
    endloop
  endfacet
  facet normal 1 -0 0
    outer loop
      vertex -2.6 -2.1 14
      vertex -2.6 2.1 13.3
      vertex -2.6 2.1 14
    endloop
  endfacet
  facet normal 1 0 0
    outer loop
      vertex -2.6 2.1 13.3
      vertex -2.6 -2.1 14
      vertex -2.6 -2.1 13.3
    endloop
  endfacet
  facet normal 0 0 -1
    outer loop
      vertex 3 -2.1 14
      vertex 2.6 0 14
      vertex 3 0 14
    endloop
  endfacet
  facet normal 0 0 -1
    outer loop
      vertex -2.6 -2.1 14
      vertex 2.6 0 14
      vertex 3 -2.1 14
    endloop
  endfacet
  facet normal 0 0 -1
    outer loop
      vertex -2.6 2.1 14
      vertex 2.6 0 14
      vertex -2.6 -2.1 14
    endloop
  endfacet
  facet normal 0 0 -1
    outer loop
      vertex 2.6 0 14
      vertex -2.6 2.1 14
      vertex 2.6 2.1 14
    endloop
  endfacet
  facet normal -1 0 0
    outer loop
      vertex 2.6 -3.1 1.7
      vertex 2.6 -3 12.1
      vertex 2.6 -3 1.7
    endloop
  endfacet
  facet normal -1 -0 0
    outer loop
      vertex 2.6 -3 12.1
      vertex 2.6 -3.1 1.7
      vertex 2.6 -3.1 12.1
    endloop
  endfacet
  facet normal -1 0 0
    outer loop
      vertex 2.6 3.1 1.7
      vertex 2.6 2.1 12.1
      vertex 2.6 3.1 12.1
    endloop
  endfacet
  facet normal -1 0 0
    outer loop
      vertex 2.6 0 1.7
      vertex 2.6 2.1 12.1
      vertex 2.6 3.1 1.7
    endloop
  endfacet
  facet normal -1 0 0
    outer loop
      vertex 2.6 0 14
      vertex 2.6 2.1 12.1
      vertex 2.6 0 1.7
    endloop
  endfacet
  facet normal -1 0 0
    outer loop
      vertex 2.6 2.1 12.1
      vertex 2.6 0 14
      vertex 2.6 2.1 14
    endloop
  endfacet
  facet normal -0 0 1
    outer loop
      vertex -2.6 3.1 1.7
      vertex 2.6 0 1.7
      vertex 2.6 3.1 1.7
    endloop
  endfacet
  facet normal 0 0 1
    outer loop
      vertex -2.6 -3.1 1.7
      vertex 2.6 0 1.7
      vertex -2.6 3.1 1.7
    endloop
  endfacet
  facet normal 0 0 1
    outer loop
      vertex 2.6 0 1.7
      vertex -2.6 -3.1 1.7
      vertex 2.6 -3 1.7
    endloop
  endfacet
  facet normal 0 0 1
    outer loop
      vertex 2.6 -3 1.7
      vertex -2.6 -3.1 1.7
      vertex 2.6 -3.1 1.7
    endloop
  endfacet
  facet normal -0 0 1
    outer loop
      vertex 2.6 0 1.7
      vertex 3 -3 1.7
      vertex 3 0 1.7
    endloop
  endfacet
  facet normal 0 0 1
    outer loop
      vertex 3 -3 1.7
      vertex 2.6 0 1.7
      vertex 2.6 -3 1.7
    endloop
  endfacet
  facet normal 0 1 0
    outer loop
      vertex 2.6 -3.1 12.1
      vertex -1.2 -3.1 3
      vertex -1.2 -3.1 12.1
    endloop
  endfacet
  facet normal 0 1 -0
    outer loop
      vertex 2.6 -3.1 1.7
      vertex -1.2 -3.1 3
      vertex 2.6 -3.1 12.1
    endloop
  endfacet
  facet normal 0 1 0
    outer loop
      vertex -2.6 -3.1 1.7
      vertex -1.2 -3.1 3
      vertex 2.6 -3.1 1.7
    endloop
  endfacet
  facet normal 0 1 0
    outer loop
      vertex -1.2 -3.1 3
      vertex -2.6 -3.1 1.7
      vertex -2.6 -3.1 3
    endloop
  endfacet
  facet normal 0 -1 0
    outer loop
      vertex -2.6 3.1 3
      vertex -2.6 3.1 1.7
      vertex -1.2 3.1 3
    endloop
  endfacet
  facet normal 0 -1 0
    outer loop
      vertex -1.2 3.1 14.8
      vertex 2.6 3.1 12.1
      vertex 3.3 3.1 14.8
    endloop
  endfacet
  facet normal 0 -1 0
    outer loop
      vertex -1.2 3.1 3
      vertex 2.6 3.1 12.1
      vertex -1.2 3.1 14.8
    endloop
  endfacet
  facet normal 0 -1 0
    outer loop
      vertex -1.2 3.1 3
      vertex 2.6 3.1 1.7
      vertex 2.6 3.1 12.1
    endloop
  endfacet
  facet normal 0 -1 0
    outer loop
      vertex 2.6 3.1 1.7
      vertex -1.2 3.1 3
      vertex -2.6 3.1 1.7
    endloop
  endfacet
  facet normal 0 -1 -0
    outer loop
      vertex 3.3 3.1 14.8
      vertex 2.6 3.1 12.1
      vertex 3.3 3.1 12.1
    endloop
  endfacet
  facet normal -1 0 0
    outer loop
      vertex 3 0 1.7
      vertex 3 -2.1 12.1
      vertex 3 0 14
    endloop
  endfacet
  facet normal -1 0 0
    outer loop
      vertex 3 -3 1.7
      vertex 3 -2.1 12.1
      vertex 3 0 1.7
    endloop
  endfacet
  facet normal -1 -0 0
    outer loop
      vertex 3 -2.1 12.1
      vertex 3 -3 1.7
      vertex 3 -3 12.1
    endloop
  endfacet
  facet normal -1 -0 0
    outer loop
      vertex 3 0 14
      vertex 3 -2.1 12.1
      vertex 3 -2.1 14
    endloop
  endfacet
  facet normal 0 1 -0
    outer loop
      vertex 3 -3 1.7
      vertex 2.6 -3 12.1
      vertex 3 -3 12.1
    endloop
  endfacet
  facet normal 0 1 0
    outer loop
      vertex 2.6 -3 12.1
      vertex 3 -3 1.7
      vertex 2.6 -3 1.7
    endloop
  endfacet
  facet normal 0 -1 0
    outer loop
      vertex 2.6 0 1.7
      vertex 3 0 14
      vertex 2.6 0 14
    endloop
  endfacet
  facet normal 0 -1 -0
    outer loop
      vertex 3 0 14
      vertex 2.6 0 1.7
      vertex 3 0 1.7
    endloop
  endfacet
  facet normal -0.999507 -0.031412 0
    outer loop
      vertex 2.5 0 0
      vertex 2.49507 0.156976 1.7
      vertex 2.49507 0.156976 0
    endloop
  endfacet
  facet normal -0.999507 -0.031412 0
    outer loop
      vertex 2.49507 0.156976 1.7
      vertex 2.5 0 0
      vertex 2.5 0 1.7
    endloop
  endfacet
  facet normal 0.999507 -0.031412 0
    outer loop
      vertex -2.5 0 1.7
      vertex -2.49507 0.156976 0
      vertex -2.49507 0.156976 1.7
    endloop
  endfacet
  facet normal 0.999507 -0.031412 0
    outer loop
      vertex -2.49507 0.156976 0
      vertex -2.5 0 1.7
      vertex -2.5 0 0
    endloop
  endfacet
  facet normal -0.031412 -0.999507 0
    outer loop
      vertex 0 2.5 0
      vertex 0.156976 2.49507 1.7
      vertex 0 2.5 1.7
    endloop
  endfacet
  facet normal -0.031412 -0.999507 -0
    outer loop
      vertex 0.156976 2.49507 1.7
      vertex 0 2.5 0
      vertex 0.156976 2.49507 0
    endloop
  endfacet
  facet normal 0.031412 0.999507 -0
    outer loop
      vertex 0 -2.5 0
      vertex -0.156976 -2.49507 1.7
      vertex 0 -2.5 1.7
    endloop
  endfacet
  facet normal 0.031412 0.999507 0
    outer loop
      vertex -0.156976 -2.49507 1.7
      vertex 0 -2.5 0
      vertex -0.156976 -2.49507 0
    endloop
  endfacet
  facet normal -0.707107 -0.707107 0
    outer loop
      vertex 1.76689 1.76689 0
      vertex 1.71137 1.82242 1.7
      vertex 1.71137 1.82242 0
    endloop
  endfacet
  facet normal -0.707107 -0.707107 -0
    outer loop
      vertex 1.82242 1.71137 1.7
      vertex 1.76689 1.76689 0
      vertex 1.82242 1.71137 0
    endloop
  endfacet
  facet normal -0.707107 -0.707107 0
    outer loop
      vertex 1.76689 1.76689 0
      vertex 1.82242 1.71137 1.7
      vertex 1.71137 1.82242 1.7
    endloop
  endfacet
  facet normal 0.661311 -0.750112 0
    outer loop
      vertex -1.71137 1.82242 0
      vertex -1.59356 1.92628 1.7
      vertex -1.71137 1.82242 1.7
    endloop
  endfacet
  facet normal 0.661311 -0.750112 0
    outer loop
      vertex -1.59356 1.92628 1.7
      vertex -1.71137 1.82242 0
      vertex -1.59356 1.92628 0
    endloop
  endfacet
  facet normal 0.338736 -0.940881 0
    outer loop
      vertex -0.920311 2.32444 0
      vertex -0.772542 2.37764 1.7
      vertex -0.920311 2.32444 1.7
    endloop
  endfacet
  facet normal 0.338736 -0.940881 0
    outer loop
      vertex -0.772542 2.37764 1.7
      vertex -0.920311 2.32444 0
      vertex -0.772542 2.37764 0
    endloop
  endfacet
  facet normal -0.917753 -0.397152 0
    outer loop
      vertex 2.32444 0.920311 0
      vertex 2.26207 1.06445 1.7
      vertex 2.26207 1.06445 0
    endloop
  endfacet
  facet normal -0.917753 -0.397152 0
    outer loop
      vertex 2.26207 1.06445 1.7
      vertex 2.32444 0.920311 0
      vertex 2.32444 0.920311 1.7
    endloop
  endfacet
  facet normal -0.397152 -0.917753 0
    outer loop
      vertex 0.920311 2.32444 0
      vertex 1.06445 2.26207 1.7
      vertex 0.920311 2.32444 1.7
    endloop
  endfacet
  facet normal -0.397152 -0.917753 -0
    outer loop
      vertex 1.06445 2.26207 1.7
      vertex 0.920311 2.32444 0
      vertex 1.06445 2.26207 0
    endloop
  endfacet
  facet normal -0.562081 -0.827082 0
    outer loop
      vertex 1.33957 2.11082 0
      vertex 1.46946 2.02254 1.7
      vertex 1.33957 2.11082 1.7
    endloop
  endfacet
  facet normal -0.562081 -0.827082 -0
    outer loop
      vertex 1.46946 2.02254 1.7
      vertex 1.33957 2.11082 0
      vertex 1.46946 2.02254 0
    endloop
  endfacet
  facet normal 0.917753 -0.397152 0
    outer loop
      vertex -2.32444 0.920311 1.7
      vertex -2.26207 1.06445 0
      vertex -2.26207 1.06445 1.7
    endloop
  endfacet
  facet normal 0.917753 -0.397152 0
    outer loop
      vertex -2.26207 1.06445 0
      vertex -2.32444 0.920311 1.7
      vertex -2.32444 0.920311 0
    endloop
  endfacet
  facet normal 0.156434 -0.987688 0
    outer loop
      vertex -0.468452 2.45572 0
      vertex -0.313333 2.48029 1.7
      vertex -0.468452 2.45572 1.7
    endloop
  endfacet
  facet normal 0.156434 -0.987688 0
    outer loop
      vertex -0.313333 2.48029 1.7
      vertex -0.468452 2.45572 0
      vertex -0.313333 2.48029 0
    endloop
  endfacet
  facet normal -0.917753 0.397152 0
    outer loop
      vertex 2.26207 -1.06445 0
      vertex 2.32444 -0.920311 1.7
      vertex 2.32444 -0.920311 0
    endloop
  endfacet
  facet normal -0.917753 0.397152 0
    outer loop
      vertex 2.32444 -0.920311 1.7
      vertex 2.26207 -1.06445 0
      vertex 2.26207 -1.06445 1.7
    endloop
  endfacet
  facet normal 0.397152 0.917753 -0
    outer loop
      vertex -0.920311 -2.32444 0
      vertex -1.06445 -2.26207 1.7
      vertex -0.920311 -2.32444 1.7
    endloop
  endfacet
  facet normal 0.397152 0.917753 0
    outer loop
      vertex -1.06445 -2.26207 1.7
      vertex -0.920311 -2.32444 0
      vertex -1.06445 -2.26207 0
    endloop
  endfacet
  facet normal -0.975916 -0.218146 0
    outer loop
      vertex 2.45572 0.468452 0
      vertex 2.42146 0.621724 1.7
      vertex 2.42146 0.621724 0
    endloop
  endfacet
  facet normal -0.975916 -0.218146 0
    outer loop
      vertex 2.42146 0.621724 1.7
      vertex 2.45572 0.468452 0
      vertex 2.45572 0.468452 1.7
    endloop
  endfacet
  facet normal -0.827082 -0.562081 0
    outer loop
      vertex 2.11082 1.33957 0
      vertex 2.02254 1.46946 1.7
      vertex 2.02254 1.46946 0
    endloop
  endfacet
  facet normal -0.827082 -0.562081 0
    outer loop
      vertex 2.02254 1.46946 1.7
      vertex 2.11082 1.33957 0
      vertex 2.11082 1.33957 1.7
    endloop
  endfacet
  facet normal -0.891008 -0.453987 0
    outer loop
      vertex 2.26207 1.06445 0
      vertex 2.19077 1.20438 1.7
      vertex 2.19077 1.20438 0
    endloop
  endfacet
  facet normal -0.891008 -0.453987 0
    outer loop
      vertex 2.19077 1.20438 1.7
      vertex 2.26207 1.06445 0
      vertex 2.26207 1.06445 1.7
    endloop
  endfacet
  facet normal -0.218146 -0.975916 0
    outer loop
      vertex 0.468452 2.45572 0
      vertex 0.621724 2.42146 1.7
      vertex 0.468452 2.45572 1.7
    endloop
  endfacet
  facet normal -0.218146 -0.975916 -0
    outer loop
      vertex 0.621724 2.42146 1.7
      vertex 0.468452 2.45572 0
      vertex 0.621724 2.42146 0
    endloop
  endfacet
  facet normal -0.338736 -0.940881 0
    outer loop
      vertex 0.772542 2.37764 0
      vertex 0.920311 2.32444 1.7
      vertex 0.772542 2.37764 1.7
    endloop
  endfacet
  facet normal -0.338736 -0.940881 -0
    outer loop
      vertex 0.920311 2.32444 1.7
      vertex 0.772542 2.37764 0
      vertex 0.920311 2.32444 0
    endloop
  endfacet
  facet normal -0.156434 -0.987688 0
    outer loop
      vertex 0.313333 2.48029 0
      vertex 0.468452 2.45572 1.7
      vertex 0.313333 2.48029 1.7
    endloop
  endfacet
  facet normal -0.156434 -0.987688 -0
    outer loop
      vertex 0.468452 2.45572 1.7
      vertex 0.313333 2.48029 0
      vertex 0.468452 2.45572 0
    endloop
  endfacet
  facet normal -0.509045 -0.86074 0
    outer loop
      vertex 1.20438 2.19077 0
      vertex 1.33957 2.11082 1.7
      vertex 1.20438 2.19077 1.7
    endloop
  endfacet
  facet normal -0.509045 -0.86074 -0
    outer loop
      vertex 1.33957 2.11082 1.7
      vertex 1.20438 2.19077 0
      vertex 1.33957 2.11082 0
    endloop
  endfacet
  facet normal -0.612906 -0.790156 0
    outer loop
      vertex 1.46946 2.02254 0
      vertex 1.59356 1.92628 1.7
      vertex 1.46946 2.02254 1.7
    endloop
  endfacet
  facet normal -0.612906 -0.790156 -0
    outer loop
      vertex 1.59356 1.92628 1.7
      vertex 1.46946 2.02254 0
      vertex 1.59356 1.92628 0
    endloop
  endfacet
  facet normal 0.975916 -0.218146 0
    outer loop
      vertex -2.45572 0.468452 1.7
      vertex -2.42146 0.621724 0
      vertex -2.42146 0.621724 1.7
    endloop
  endfacet
  facet normal 0.975916 -0.218146 0
    outer loop
      vertex -2.42146 0.621724 0
      vertex -2.45572 0.468452 1.7
      vertex -2.45572 0.468452 0
    endloop
  endfacet
  facet normal 0.790156 -0.612906 0
    outer loop
      vertex -2.02254 1.46946 1.7
      vertex -1.92628 1.59356 0
      vertex -1.92628 1.59356 1.7
    endloop
  endfacet
  facet normal 0.790156 -0.612906 0
    outer loop
      vertex -1.92628 1.59356 0
      vertex -2.02254 1.46946 1.7
      vertex -2.02254 1.46946 0
    endloop
  endfacet
  facet normal 0.707107 -0.707107 0
    outer loop
      vertex -1.82242 1.71137 1.7
      vertex -1.71137 1.82242 0
      vertex -1.71137 1.82242 1.7
    endloop
  endfacet
  facet normal 0.707107 -0.707107 0
    outer loop
      vertex -1.71137 1.82242 0
      vertex -1.82242 1.71137 1.7
      vertex -1.82242 1.71137 0
    endloop
  endfacet
  facet normal 0.940881 -0.338736 0
    outer loop
      vertex -2.37764 0.772542 1.7
      vertex -2.32444 0.920311 0
      vertex -2.32444 0.920311 1.7
    endloop
  endfacet
  facet normal 0.940881 -0.338736 0
    outer loop
      vertex -2.32444 0.920311 0
      vertex -2.37764 0.772542 1.7
      vertex -2.37764 0.772542 0
    endloop
  endfacet
  facet normal 0.987688 -0.156434 0
    outer loop
      vertex -2.48029 0.313333 1.7
      vertex -2.45572 0.468452 0
      vertex -2.45572 0.468452 1.7
    endloop
  endfacet
  facet normal 0.987688 -0.156434 0
    outer loop
      vertex -2.45572 0.468452 0
      vertex -2.48029 0.313333 1.7
      vertex -2.48029 0.313333 0
    endloop
  endfacet
  facet normal 0.509045 -0.86074 0
    outer loop
      vertex -1.33957 2.11082 0
      vertex -1.20438 2.19077 1.7
      vertex -1.33957 2.11082 1.7
    endloop
  endfacet
  facet normal 0.509045 -0.86074 0
    outer loop
      vertex -1.20438 2.19077 1.7
      vertex -1.33957 2.11082 0
      vertex -1.20438 2.19077 0
    endloop
  endfacet
  facet normal 0.562081 -0.827082 0
    outer loop
      vertex -1.46946 2.02254 0
      vertex -1.33957 2.11082 1.7
      vertex -1.46946 2.02254 1.7
    endloop
  endfacet
  facet normal 0.562081 -0.827082 0
    outer loop
      vertex -1.33957 2.11082 1.7
      vertex -1.46946 2.02254 0
      vertex -1.33957 2.11082 0
    endloop
  endfacet
  facet normal 0.0941082 -0.995562 0
    outer loop
      vertex -0.313333 2.48029 0
      vertex -0.156976 2.49507 1.7
      vertex -0.313333 2.48029 1.7
    endloop
  endfacet
  facet normal 0.0941082 -0.995562 0
    outer loop
      vertex -0.156976 2.49507 1.7
      vertex -0.313333 2.48029 0
      vertex -0.156976 2.49507 0
    endloop
  endfacet
  facet normal -0.562081 0.827082 0
    outer loop
      vertex 1.46946 -2.02254 0
      vertex 1.33957 -2.11082 1.7
      vertex 1.46946 -2.02254 1.7
    endloop
  endfacet
  facet normal -0.562081 0.827082 0
    outer loop
      vertex 1.33957 -2.11082 1.7
      vertex 1.46946 -2.02254 0
      vertex 1.33957 -2.11082 0
    endloop
  endfacet
  facet normal -0.86074 0.509045 0
    outer loop
      vertex 2.11082 -1.33957 0
      vertex 2.19077 -1.20438 1.7
      vertex 2.19077 -1.20438 0
    endloop
  endfacet
  facet normal -0.86074 0.509045 0
    outer loop
      vertex 2.19077 -1.20438 1.7
      vertex 2.11082 -1.33957 0
      vertex 2.11082 -1.33957 1.7
    endloop
  endfacet
  facet normal 0.707107 0.707107 0
    outer loop
      vertex -1.71137 -1.82242 1.7
      vertex -1.82242 -1.71137 0
      vertex -1.82242 -1.71137 1.7
    endloop
  endfacet
  facet normal 0.707107 0.707107 0
    outer loop
      vertex -1.82242 -1.71137 0
      vertex -1.71137 -1.82242 1.7
      vertex -1.71137 -1.82242 0
    endloop
  endfacet
  facet normal 0.338736 0.940881 -0
    outer loop
      vertex -0.772542 -2.37764 0
      vertex -0.920311 -2.32444 1.7
      vertex -0.772542 -2.37764 1.7
    endloop
  endfacet
  facet normal 0.338736 0.940881 0
    outer loop
      vertex -0.920311 -2.32444 1.7
      vertex -0.772542 -2.37764 0
      vertex -0.920311 -2.32444 0
    endloop
  endfacet
  facet normal 0.156434 0.987688 -0
    outer loop
      vertex -0.313333 -2.48029 0
      vertex -0.468452 -2.45572 1.7
      vertex -0.313333 -2.48029 1.7
    endloop
  endfacet
  facet normal 0.156434 0.987688 0
    outer loop
      vertex -0.468452 -2.45572 1.7
      vertex -0.313333 -2.48029 0
      vertex -0.468452 -2.45572 0
    endloop
  endfacet
  facet normal 0.827082 0.562081 0
    outer loop
      vertex -2.02254 -1.46946 1.7
      vertex -2.11082 -1.33957 0
      vertex -2.11082 -1.33957 1.7
    endloop
  endfacet
  facet normal 0.827082 0.562081 0
    outer loop
      vertex -2.11082 -1.33957 0
      vertex -2.02254 -1.46946 1.7
      vertex -2.02254 -1.46946 0
    endloop
  endfacet
  facet normal 0.750112 0.661311 0
    outer loop
      vertex -1.82242 -1.71137 1.7
      vertex -1.92628 -1.59356 0
      vertex -1.92628 -1.59356 1.7
    endloop
  endfacet
  facet normal 0.750112 0.661311 0
    outer loop
      vertex -1.92628 -1.59356 0
      vertex -1.82242 -1.71137 1.7
      vertex -1.82242 -1.71137 0
    endloop
  endfacet
  facet normal 0 0 -1
    outer loop
      vertex 10 -10 0
      vertex 4 0 0
      vertex 10 10 0
    endloop
  endfacet
  facet normal 0 0 -1
    outer loop
      vertex 1.92628 -1.59356 0
      vertex 4 0 0
      vertex 10 -10 0
    endloop
  endfacet
  facet normal -0 0 -1
    outer loop
      vertex 4 0 0
      vertex 2.49507 -0.156976 0
      vertex 2.5 0 0
    endloop
  endfacet
  facet normal 0 0 -1
    outer loop
      vertex 4 0 0
      vertex 2.48029 -0.313333 0
      vertex 2.49507 -0.156976 0
    endloop
  endfacet
  facet normal 0 0 -1
    outer loop
      vertex 4 0 0
      vertex 2.45572 -0.468452 0
      vertex 2.48029 -0.313333 0
    endloop
  endfacet
  facet normal 0 0 -1
    outer loop
      vertex 4 0 0
      vertex 2.42146 -0.621724 0
      vertex 2.45572 -0.468452 0
    endloop
  endfacet
  facet normal 0 0 -1
    outer loop
      vertex 4 0 0
      vertex 2.37764 -0.772542 0
      vertex 2.42146 -0.621724 0
    endloop
  endfacet
  facet normal 0 0 -1
    outer loop
      vertex 4 0 0
      vertex 2.32444 -0.920311 0
      vertex 2.37764 -0.772542 0
    endloop
  endfacet
  facet normal 0 0 -1
    outer loop
      vertex 4 0 0
      vertex 2.26207 -1.06445 0
      vertex 2.32444 -0.920311 0
    endloop
  endfacet
  facet normal 0 0 -1
    outer loop
      vertex 4 0 0
      vertex 2.19077 -1.20438 0
      vertex 2.26207 -1.06445 0
    endloop
  endfacet
  facet normal 0 0 -1
    outer loop
      vertex 4 0 0
      vertex 2.11082 -1.33957 0
      vertex 2.19077 -1.20438 0
    endloop
  endfacet
  facet normal 0 0 -1
    outer loop
      vertex 4 0 0
      vertex 2.02254 -1.46946 0
      vertex 2.11082 -1.33957 0
    endloop
  endfacet
  facet normal 0 0 -1
    outer loop
      vertex 4 0 0
      vertex 1.92628 -1.59356 0
      vertex 2.02254 -1.46946 0
    endloop
  endfacet
  facet normal 0 0 -1
    outer loop
      vertex 10 -10 0
      vertex 1.82242 -1.71137 0
      vertex 1.92628 -1.59356 0
    endloop
  endfacet
  facet normal 0 0 -1
    outer loop
      vertex 10 -10 0
      vertex 1.71137 -1.82242 0
      vertex 1.82242 -1.71137 0
    endloop
  endfacet
  facet normal 0 0 -1
    outer loop
      vertex 10 -10 0
      vertex 1.59356 -1.92628 0
      vertex 1.71137 -1.82242 0
    endloop
  endfacet
  facet normal 0 0 -1
    outer loop
      vertex 10 -10 0
      vertex 1.46946 -2.02254 0
      vertex 1.59356 -1.92628 0
    endloop
  endfacet
  facet normal 0 0 -1
    outer loop
      vertex 10 -10 0
      vertex 1.33957 -2.11082 0
      vertex 1.46946 -2.02254 0
    endloop
  endfacet
  facet normal 0 0 -1
    outer loop
      vertex 10 -10 0
      vertex 1.20438 -2.19077 0
      vertex 1.33957 -2.11082 0
    endloop
  endfacet
  facet normal 0 0 -1
    outer loop
      vertex 10 -10 0
      vertex 1.06445 -2.26207 0
      vertex 1.20438 -2.19077 0
    endloop
  endfacet
  facet normal 0 0 -1
    outer loop
      vertex 10 -10 0
      vertex 0.920311 -2.32444 0
      vertex 1.06445 -2.26207 0
    endloop
  endfacet
  facet normal 0 0 -1
    outer loop
      vertex 10 -10 0
      vertex 0.772542 -2.37764 0
      vertex 0.920311 -2.32444 0
    endloop
  endfacet
  facet normal 0 0 -1
    outer loop
      vertex 10 -10 0
      vertex 0.621724 -2.42146 0
      vertex 0.772542 -2.37764 0
    endloop
  endfacet
  facet normal 0 0 -1
    outer loop
      vertex 10 -10 0
      vertex 0.468452 -2.45572 0
      vertex 0.621724 -2.42146 0
    endloop
  endfacet
  facet normal 0 0 -1
    outer loop
      vertex 10 -10 0
      vertex 0.313333 -2.48029 0
      vertex 0.468452 -2.45572 0
    endloop
  endfacet
  facet normal 0 0 -1
    outer loop
      vertex 10 -10 0
      vertex 0.156976 -2.49507 0
      vertex 0.313333 -2.48029 0
    endloop
  endfacet
  facet normal 0 0 -1
    outer loop
      vertex 10 -10 0
      vertex 0 -2.5 0
      vertex 0.156976 -2.49507 0
    endloop
  endfacet
  facet normal 0 0 -1
    outer loop
      vertex -10 -10 0
      vertex 0 -2.5 0
      vertex 10 -10 0
    endloop
  endfacet
  facet normal -0 0 -1
    outer loop
      vertex 0 -2.5 0
      vertex -10 -10 0
      vertex -0.156976 -2.49507 0
    endloop
  endfacet
  facet normal -0 0 -1
    outer loop
      vertex -0.156976 -2.49507 0
      vertex -10 -10 0
      vertex -0.313333 -2.48029 0
    endloop
  endfacet
  facet normal -0 0 -1
    outer loop
      vertex -0.313333 -2.48029 0
      vertex -10 -10 0
      vertex -0.468452 -2.45572 0
    endloop
  endfacet
  facet normal -0 0 -1
    outer loop
      vertex -0.468452 -2.45572 0
      vertex -10 -10 0
      vertex -0.621724 -2.42146 0
    endloop
  endfacet
  facet normal -0 0 -1
    outer loop
      vertex -0.621724 -2.42146 0
      vertex -10 -10 0
      vertex -0.772542 -2.37764 0
    endloop
  endfacet
  facet normal -0 0 -1
    outer loop
      vertex -0.772542 -2.37764 0
      vertex -10 -10 0
      vertex -0.920311 -2.32444 0
    endloop
  endfacet
  facet normal -0 0 -1
    outer loop
      vertex -0.920311 -2.32444 0
      vertex -10 -10 0
      vertex -1.06445 -2.26207 0
    endloop
  endfacet
  facet normal -0 0 -1
    outer loop
      vertex -1.06445 -2.26207 0
      vertex -10 -10 0
      vertex -1.20438 -2.19077 0
    endloop
  endfacet
  facet normal -0 0 -1
    outer loop
      vertex -1.20438 -2.19077 0
      vertex -10 -10 0
      vertex -1.33957 -2.11082 0
    endloop
  endfacet
  facet normal -0 0 -1
    outer loop
      vertex -2.49507 -0.156976 0
      vertex -10 -10 0
      vertex -2.5 0 0
    endloop
  endfacet
  facet normal -0 0 -1
    outer loop
      vertex -2.48029 -0.313333 0
      vertex -10 -10 0
      vertex -2.49507 -0.156976 0
    endloop
  endfacet
  facet normal -0 0 -1
    outer loop
      vertex -2.45572 -0.468452 0
      vertex -10 -10 0
      vertex -2.48029 -0.313333 0
    endloop
  endfacet
  facet normal -0 0 -1
    outer loop
      vertex -2.42146 -0.621724 0
      vertex -10 -10 0
      vertex -2.45572 -0.468452 0
    endloop
  endfacet
  facet normal -0 0 -1
    outer loop
      vertex -2.37764 -0.772542 0
      vertex -10 -10 0
      vertex -2.42146 -0.621724 0
    endloop
  endfacet
  facet normal -0 0 -1
    outer loop
      vertex -2.32444 -0.920311 0
      vertex -10 -10 0
      vertex -2.37764 -0.772542 0
    endloop
  endfacet
  facet normal -0 0 -1
    outer loop
      vertex -2.26207 -1.06445 0
      vertex -10 -10 0
      vertex -2.32444 -0.920311 0
    endloop
  endfacet
  facet normal -0 0 -1
    outer loop
      vertex -2.19077 -1.20438 0
      vertex -10 -10 0
      vertex -2.26207 -1.06445 0
    endloop
  endfacet
  facet normal -0 0 -1
    outer loop
      vertex -2.11082 -1.33957 0
      vertex -10 -10 0
      vertex -2.19077 -1.20438 0
    endloop
  endfacet
  facet normal -0 0 -1
    outer loop
      vertex -2.02254 -1.46946 0
      vertex -10 -10 0
      vertex -2.11082 -1.33957 0
    endloop
  endfacet
  facet normal -0 0 -1
    outer loop
      vertex -1.92628 -1.59356 0
      vertex -10 -10 0
      vertex -2.02254 -1.46946 0
    endloop
  endfacet
  facet normal -0 0 -1
    outer loop
      vertex -1.82242 -1.71137 0
      vertex -10 -10 0
      vertex -1.92628 -1.59356 0
    endloop
  endfacet
  facet normal -0 0 -1
    outer loop
      vertex -1.71137 -1.82242 0
      vertex -10 -10 0
      vertex -1.82242 -1.71137 0
    endloop
  endfacet
  facet normal -0 0 -1
    outer loop
      vertex -1.59356 -1.92628 0
      vertex -10 -10 0
      vertex -1.71137 -1.82242 0
    endloop
  endfacet
  facet normal -0 0 -1
    outer loop
      vertex -1.46946 -2.02254 0
      vertex -10 -10 0
      vertex -1.59356 -1.92628 0
    endloop
  endfacet
  facet normal -0 0 -1
    outer loop
      vertex -1.33957 -2.11082 0
      vertex -10 -10 0
      vertex -1.46946 -2.02254 0
    endloop
  endfacet
  facet normal 0 0 -1
    outer loop
      vertex 2 2 0
      vertex 10 10 0
      vertex 4 0 0
    endloop
  endfacet
  facet normal 0 0 -1
    outer loop
      vertex 1.71137 1.82242 0
      vertex 2 2 0
      vertex 1.76689 1.76689 0
    endloop
  endfacet
  facet normal 0 0 -1
    outer loop
      vertex 1.59356 1.92628 0
      vertex 2 2 0
      vertex 1.71137 1.82242 0
    endloop
  endfacet
  facet normal 0 0 -1
    outer loop
      vertex 1.46946 2.02254 0
      vertex 2 2 0
      vertex 1.59356 1.92628 0
    endloop
  endfacet
  facet normal 0 0 -1
    outer loop
      vertex 1.33957 2.11082 0
      vertex 2 2 0
      vertex 1.46946 2.02254 0
    endloop
  endfacet
  facet normal 0 0 -1
    outer loop
      vertex 1.20438 2.19077 0
      vertex 2 2 0
      vertex 1.33957 2.11082 0
    endloop
  endfacet
  facet normal 0 0 -1
    outer loop
      vertex 1.06445 2.26207 0
      vertex 2 2 0
      vertex 1.20438 2.19077 0
    endloop
  endfacet
  facet normal 0 0 -1
    outer loop
      vertex 0.920311 2.32444 0
      vertex 2 2 0
      vertex 1.06445 2.26207 0
    endloop
  endfacet
  facet normal 0 0 -1
    outer loop
      vertex 2 2 0
      vertex 0.920311 2.32444 0
      vertex 10 10 0
    endloop
  endfacet
  facet normal 0 0 -1
    outer loop
      vertex 0.772542 2.37764 0
      vertex 10 10 0
      vertex 0.920311 2.32444 0
    endloop
  endfacet
  facet normal 0 0 -1
    outer loop
      vertex 0.621724 2.42146 0
      vertex 10 10 0
      vertex 0.772542 2.37764 0
    endloop
  endfacet
  facet normal 0 0 -1
    outer loop
      vertex 0.468452 2.45572 0
      vertex 10 10 0
      vertex 0.621724 2.42146 0
    endloop
  endfacet
  facet normal 0 0 -1
    outer loop
      vertex 0.313333 2.48029 0
      vertex 10 10 0
      vertex 0.468452 2.45572 0
    endloop
  endfacet
  facet normal 0 0 -1
    outer loop
      vertex 0.156976 2.49507 0
      vertex 10 10 0
      vertex 0.313333 2.48029 0
    endloop
  endfacet
  facet normal 0 0 -1
    outer loop
      vertex 0 2.5 0
      vertex 10 10 0
      vertex 0.156976 2.49507 0
    endloop
  endfacet
  facet normal 0 0 -1
    outer loop
      vertex -10 10 0
      vertex 0 2.5 0
      vertex -0.156976 2.49507 0
    endloop
  endfacet
  facet normal 0 0 -1
    outer loop
      vertex -10 10 0
      vertex -0.156976 2.49507 0
      vertex -0.313333 2.48029 0
    endloop
  endfacet
  facet normal 0 0 -1
    outer loop
      vertex -10 10 0
      vertex -0.313333 2.48029 0
      vertex -0.468452 2.45572 0
    endloop
  endfacet
  facet normal 0 0 -1
    outer loop
      vertex -10 10 0
      vertex -0.468452 2.45572 0
      vertex -0.621724 2.42146 0
    endloop
  endfacet
  facet normal 0 0 -1
    outer loop
      vertex -10 10 0
      vertex -0.621724 2.42146 0
      vertex -0.772542 2.37764 0
    endloop
  endfacet
  facet normal 0 0 -1
    outer loop
      vertex -10 10 0
      vertex -0.772542 2.37764 0
      vertex -0.920311 2.32444 0
    endloop
  endfacet
  facet normal 0 0 -1
    outer loop
      vertex -10 10 0
      vertex -0.920311 2.32444 0
      vertex -1.06445 2.26207 0
    endloop
  endfacet
  facet normal 0 0 -1
    outer loop
      vertex -10 10 0
      vertex -1.06445 2.26207 0
      vertex -1.20438 2.19077 0
    endloop
  endfacet
  facet normal 0 0 -1
    outer loop
      vertex -10 10 0
      vertex -1.20438 2.19077 0
      vertex -1.33957 2.11082 0
    endloop
  endfacet
  facet normal 0 0 -1
    outer loop
      vertex -10 10 0
      vertex -1.33957 2.11082 0
      vertex -1.46946 2.02254 0
    endloop
  endfacet
  facet normal 0 0 -1
    outer loop
      vertex -10 10 0
      vertex -2.5 0 0
      vertex -10 -10 0
    endloop
  endfacet
  facet normal 0 0 -1
    outer loop
      vertex -2.5 0 0
      vertex -10 10 0
      vertex -2.49507 0.156976 0
    endloop
  endfacet
  facet normal 0 0 -1
    outer loop
      vertex -2.49507 0.156976 0
      vertex -10 10 0
      vertex -2.48029 0.313333 0
    endloop
  endfacet
  facet normal 0 0 -1
    outer loop
      vertex -2.48029 0.313333 0
      vertex -10 10 0
      vertex -2.45572 0.468452 0
    endloop
  endfacet
  facet normal 0 0 -1
    outer loop
      vertex -2.45572 0.468452 0
      vertex -10 10 0
      vertex -2.42146 0.621724 0
    endloop
  endfacet
  facet normal 0 0 -1
    outer loop
      vertex -2.42146 0.621724 0
      vertex -10 10 0
      vertex -2.37764 0.772542 0
    endloop
  endfacet
  facet normal 0 0 -1
    outer loop
      vertex -2.37764 0.772542 0
      vertex -10 10 0
      vertex -2.32444 0.920311 0
    endloop
  endfacet
  facet normal 0 0 -1
    outer loop
      vertex -2.32444 0.920311 0
      vertex -10 10 0
      vertex -2.26207 1.06445 0
    endloop
  endfacet
  facet normal 0 0 -1
    outer loop
      vertex -2.26207 1.06445 0
      vertex -10 10 0
      vertex -2.19077 1.20438 0
    endloop
  endfacet
  facet normal 0 0 -1
    outer loop
      vertex -2.19077 1.20438 0
      vertex -10 10 0
      vertex -2.11082 1.33957 0
    endloop
  endfacet
  facet normal 0 0 -1
    outer loop
      vertex 0 2.5 0
      vertex -10 10 0
      vertex 10 10 0
    endloop
  endfacet
  facet normal 0 0 -1
    outer loop
      vertex -1.59356 1.92628 0
      vertex -10 10 0
      vertex -1.46946 2.02254 0
    endloop
  endfacet
  facet normal 0 0 -1
    outer loop
      vertex -1.71137 1.82242 0
      vertex -10 10 0
      vertex -1.59356 1.92628 0
    endloop
  endfacet
  facet normal 0 0 -1
    outer loop
      vertex -1.82242 1.71137 0
      vertex -10 10 0
      vertex -1.71137 1.82242 0
    endloop
  endfacet
  facet normal 0 0 -1
    outer loop
      vertex -1.92628 1.59356 0
      vertex -10 10 0
      vertex -1.82242 1.71137 0
    endloop
  endfacet
  facet normal 0 0 -1
    outer loop
      vertex -2.02254 1.46946 0
      vertex -10 10 0
      vertex -1.92628 1.59356 0
    endloop
  endfacet
  facet normal 0 0 -1
    outer loop
      vertex -2.11082 1.33957 0
      vertex -10 10 0
      vertex -2.02254 1.46946 0
    endloop
  endfacet
  facet normal 0 0 -1
    outer loop
      vertex 2.49507 0.156976 0
      vertex 4 0 0
      vertex 2.5 0 0
    endloop
  endfacet
  facet normal 0 0 -1
    outer loop
      vertex 2.48029 0.313333 0
      vertex 4 0 0
      vertex 2.49507 0.156976 0
    endloop
  endfacet
  facet normal 0 0 -1
    outer loop
      vertex 2.45572 0.468452 0
      vertex 4 0 0
      vertex 2.48029 0.313333 0
    endloop
  endfacet
  facet normal 0 0 -1
    outer loop
      vertex 2.42146 0.621724 0
      vertex 4 0 0
      vertex 2.45572 0.468452 0
    endloop
  endfacet
  facet normal 0 0 -1
    outer loop
      vertex 2.37764 0.772542 0
      vertex 4 0 0
      vertex 2.42146 0.621724 0
    endloop
  endfacet
  facet normal 0 0 -1
    outer loop
      vertex 2.32444 0.920311 0
      vertex 4 0 0
      vertex 2.37764 0.772542 0
    endloop
  endfacet
  facet normal 0 0 -1
    outer loop
      vertex 2.26207 1.06445 0
      vertex 4 0 0
      vertex 2.32444 0.920311 0
    endloop
  endfacet
  facet normal 0 0 -1
    outer loop
      vertex 2.19077 1.20438 0
      vertex 4 0 0
      vertex 2.26207 1.06445 0
    endloop
  endfacet
  facet normal 0 0 -1
    outer loop
      vertex 2 2 0
      vertex 2.19077 1.20438 0
      vertex 2.11082 1.33957 0
    endloop
  endfacet
  facet normal 0 0 -1
    outer loop
      vertex 2 2 0
      vertex 2.11082 1.33957 0
      vertex 2.02254 1.46946 0
    endloop
  endfacet
  facet normal 0 0 -1
    outer loop
      vertex 2.19077 1.20438 0
      vertex 2 2 0
      vertex 4 0 0
    endloop
  endfacet
  facet normal 0 0 -1
    outer loop
      vertex 1.92628 1.59356 0
      vertex 2 2 0
      vertex 2.02254 1.46946 0
    endloop
  endfacet
  facet normal 0 0 -1
    outer loop
      vertex 1.82242 1.71137 0
      vertex 2 2 0
      vertex 1.92628 1.59356 0
    endloop
  endfacet
  facet normal 0 0 -1
    outer loop
      vertex 2 2 0
      vertex 1.82242 1.71137 0
      vertex 1.76689 1.76689 0
    endloop
  endfacet
  facet normal -0.987688 -0.156434 0
    outer loop
      vertex 2.48029 0.313333 0
      vertex 2.45572 0.468452 1.7
      vertex 2.45572 0.468452 0
    endloop
  endfacet
  facet normal -0.987688 -0.156434 0
    outer loop
      vertex 2.45572 0.468452 1.7
      vertex 2.48029 0.313333 0
      vertex 2.48029 0.313333 1.7
    endloop
  endfacet
  facet normal -0.995562 -0.0941082 0
    outer loop
      vertex 2.49507 0.156976 0
      vertex 2.48029 0.313333 1.7
      vertex 2.48029 0.313333 0
    endloop
  endfacet
  facet normal -0.995562 -0.0941082 0
    outer loop
      vertex 2.48029 0.313333 1.7
      vertex 2.49507 0.156976 0
      vertex 2.49507 0.156976 1.7
    endloop
  endfacet
  facet normal -0.940881 -0.338736 0
    outer loop
      vertex 2.37764 0.772542 0
      vertex 2.32444 0.920311 1.7
      vertex 2.32444 0.920311 0
    endloop
  endfacet
  facet normal -0.940881 -0.338736 0
    outer loop
      vertex 2.32444 0.920311 1.7
      vertex 2.37764 0.772542 0
      vertex 2.37764 0.772542 1.7
    endloop
  endfacet
  facet normal -0.960294 -0.278991 0
    outer loop
      vertex 2.42146 0.621724 0
      vertex 2.37764 0.772542 1.7
      vertex 2.37764 0.772542 0
    endloop
  endfacet
  facet normal -0.960294 -0.278991 0
    outer loop
      vertex 2.37764 0.772542 1.7
      vertex 2.42146 0.621724 0
      vertex 2.42146 0.621724 1.7
    endloop
  endfacet
  facet normal -0.790156 -0.612906 0
    outer loop
      vertex 2.02254 1.46946 0
      vertex 1.92628 1.59356 1.7
      vertex 1.92628 1.59356 0
    endloop
  endfacet
  facet normal -0.790156 -0.612906 0
    outer loop
      vertex 1.92628 1.59356 1.7
      vertex 2.02254 1.46946 0
      vertex 2.02254 1.46946 1.7
    endloop
  endfacet
  facet normal -0.750112 -0.661311 0
    outer loop
      vertex 1.92628 1.59356 0
      vertex 1.82242 1.71137 1.7
      vertex 1.82242 1.71137 0
    endloop
  endfacet
  facet normal -0.750112 -0.661311 0
    outer loop
      vertex 1.82242 1.71137 1.7
      vertex 1.92628 1.59356 0
      vertex 1.92628 1.59356 1.7
    endloop
  endfacet
  facet normal -0.86074 -0.509045 0
    outer loop
      vertex 2.19077 1.20438 0
      vertex 2.11082 1.33957 1.7
      vertex 2.11082 1.33957 0
    endloop
  endfacet
  facet normal -0.86074 -0.509045 0
    outer loop
      vertex 2.11082 1.33957 1.7
      vertex 2.19077 1.20438 0
      vertex 2.19077 1.20438 1.7
    endloop
  endfacet
  facet normal -0.278991 -0.960294 0
    outer loop
      vertex 0.621724 2.42146 0
      vertex 0.772542 2.37764 1.7
      vertex 0.621724 2.42146 1.7
    endloop
  endfacet
  facet normal -0.278991 -0.960294 -0
    outer loop
      vertex 0.772542 2.37764 1.7
      vertex 0.621724 2.42146 0
      vertex 0.772542 2.37764 0
    endloop
  endfacet
  facet normal -0.0941082 -0.995562 0
    outer loop
      vertex 0.156976 2.49507 0
      vertex 0.313333 2.48029 1.7
      vertex 0.156976 2.49507 1.7
    endloop
  endfacet
  facet normal -0.0941082 -0.995562 -0
    outer loop
      vertex 0.313333 2.48029 1.7
      vertex 0.156976 2.49507 0
      vertex 0.313333 2.48029 0
    endloop
  endfacet
  facet normal -0.453987 -0.891008 0
    outer loop
      vertex 1.06445 2.26207 0
      vertex 1.20438 2.19077 1.7
      vertex 1.06445 2.26207 1.7
    endloop
  endfacet
  facet normal -0.453987 -0.891008 -0
    outer loop
      vertex 1.20438 2.19077 1.7
      vertex 1.06445 2.26207 0
      vertex 1.20438 2.19077 0
    endloop
  endfacet
  facet normal -0.661311 -0.750112 0
    outer loop
      vertex 1.59356 1.92628 0
      vertex 1.71137 1.82242 1.7
      vertex 1.59356 1.92628 1.7
    endloop
  endfacet
  facet normal -0.661311 -0.750112 -0
    outer loop
      vertex 1.71137 1.82242 1.7
      vertex 1.59356 1.92628 0
      vertex 1.71137 1.82242 0
    endloop
  endfacet
  facet normal 0.750112 -0.661311 0
    outer loop
      vertex -1.92628 1.59356 1.7
      vertex -1.82242 1.71137 0
      vertex -1.82242 1.71137 1.7
    endloop
  endfacet
  facet normal 0.750112 -0.661311 0
    outer loop
      vertex -1.82242 1.71137 0
      vertex -1.92628 1.59356 1.7
      vertex -1.92628 1.59356 0
    endloop
  endfacet
  facet normal 0.86074 -0.509045 0
    outer loop
      vertex -2.19077 1.20438 1.7
      vertex -2.11082 1.33957 0
      vertex -2.11082 1.33957 1.7
    endloop
  endfacet
  facet normal 0.86074 -0.509045 0
    outer loop
      vertex -2.11082 1.33957 0
      vertex -2.19077 1.20438 1.7
      vertex -2.19077 1.20438 0
    endloop
  endfacet
  facet normal 0.891008 -0.453987 0
    outer loop
      vertex -2.26207 1.06445 1.7
      vertex -2.19077 1.20438 0
      vertex -2.19077 1.20438 1.7
    endloop
  endfacet
  facet normal 0.891008 -0.453987 0
    outer loop
      vertex -2.19077 1.20438 0
      vertex -2.26207 1.06445 1.7
      vertex -2.26207 1.06445 0
    endloop
  endfacet
  facet normal 0.827082 -0.562081 0
    outer loop
      vertex -2.11082 1.33957 1.7
      vertex -2.02254 1.46946 0
      vertex -2.02254 1.46946 1.7
    endloop
  endfacet
  facet normal 0.827082 -0.562081 0
    outer loop
      vertex -2.02254 1.46946 0
      vertex -2.11082 1.33957 1.7
      vertex -2.11082 1.33957 0
    endloop
  endfacet
  facet normal 0.960294 -0.278991 0
    outer loop
      vertex -2.42146 0.621724 1.7
      vertex -2.37764 0.772542 0
      vertex -2.37764 0.772542 1.7
    endloop
  endfacet
  facet normal 0.960294 -0.278991 0
    outer loop
      vertex -2.37764 0.772542 0
      vertex -2.42146 0.621724 1.7
      vertex -2.42146 0.621724 0
    endloop
  endfacet
  facet normal 0.995562 -0.0941082 0
    outer loop
      vertex -2.49507 0.156976 1.7
      vertex -2.48029 0.313333 0
      vertex -2.48029 0.313333 1.7
    endloop
  endfacet
  facet normal 0.995562 -0.0941082 0
    outer loop
      vertex -2.48029 0.313333 0
      vertex -2.49507 0.156976 1.7
      vertex -2.49507 0.156976 0
    endloop
  endfacet
  facet normal 0 0 -1
    outer loop
      vertex 2.49507 -0.156976 1.7
      vertex 2.49507 0.156976 1.7
      vertex 2.5 0 1.7
    endloop
  endfacet
  facet normal 0 0 -1
    outer loop
      vertex 2.48029 -0.313333 1.7
      vertex 2.49507 0.156976 1.7
      vertex 2.49507 -0.156976 1.7
    endloop
  endfacet
  facet normal 0 0 -1
    outer loop
      vertex 2.48029 -0.313333 1.7
      vertex 2.48029 0.313333 1.7
      vertex 2.49507 0.156976 1.7
    endloop
  endfacet
  facet normal 0 0 -1
    outer loop
      vertex 2.45572 -0.468452 1.7
      vertex 2.48029 0.313333 1.7
      vertex 2.48029 -0.313333 1.7
    endloop
  endfacet
  facet normal 0 0 -1
    outer loop
      vertex 2.45572 -0.468452 1.7
      vertex 2.45572 0.468452 1.7
      vertex 2.48029 0.313333 1.7
    endloop
  endfacet
  facet normal 0 0 -1
    outer loop
      vertex 2.42146 -0.621724 1.7
      vertex 2.45572 0.468452 1.7
      vertex 2.45572 -0.468452 1.7
    endloop
  endfacet
  facet normal 0 0 -1
    outer loop
      vertex 2.42146 -0.621724 1.7
      vertex 2.42146 0.621724 1.7
      vertex 2.45572 0.468452 1.7
    endloop
  endfacet
  facet normal 0 0 -1
    outer loop
      vertex 2.37764 -0.772542 1.7
      vertex 2.42146 0.621724 1.7
      vertex 2.42146 -0.621724 1.7
    endloop
  endfacet
  facet normal 0 0 -1
    outer loop
      vertex 2.37764 -0.772542 1.7
      vertex 2.37764 0.772542 1.7
      vertex 2.42146 0.621724 1.7
    endloop
  endfacet
  facet normal 0 0 -1
    outer loop
      vertex 2.32444 -0.920311 1.7
      vertex 2.37764 0.772542 1.7
      vertex 2.37764 -0.772542 1.7
    endloop
  endfacet
  facet normal 0 0 -1
    outer loop
      vertex 2.32444 -0.920311 1.7
      vertex 2.32444 0.920311 1.7
      vertex 2.37764 0.772542 1.7
    endloop
  endfacet
  facet normal 0 0 -1
    outer loop
      vertex 2.26207 -1.06445 1.7
      vertex 2.32444 0.920311 1.7
      vertex 2.32444 -0.920311 1.7
    endloop
  endfacet
  facet normal 0 0 -1
    outer loop
      vertex 2.26207 -1.06445 1.7
      vertex 2.26207 1.06445 1.7
      vertex 2.32444 0.920311 1.7
    endloop
  endfacet
  facet normal 0 0 -1
    outer loop
      vertex 2.19077 -1.20438 1.7
      vertex 2.26207 1.06445 1.7
      vertex 2.26207 -1.06445 1.7
    endloop
  endfacet
  facet normal 0 0 -1
    outer loop
      vertex 2.19077 -1.20438 1.7
      vertex 2.19077 1.20438 1.7
      vertex 2.26207 1.06445 1.7
    endloop
  endfacet
  facet normal 0 0 -1
    outer loop
      vertex 2.11082 -1.33957 1.7
      vertex 2.19077 1.20438 1.7
      vertex 2.19077 -1.20438 1.7
    endloop
  endfacet
  facet normal 0 0 -1
    outer loop
      vertex 2.11082 -1.33957 1.7
      vertex 2.11082 1.33957 1.7
      vertex 2.19077 1.20438 1.7
    endloop
  endfacet
  facet normal 0 0 -1
    outer loop
      vertex 2.02254 -1.46946 1.7
      vertex 2.11082 1.33957 1.7
      vertex 2.11082 -1.33957 1.7
    endloop
  endfacet
  facet normal 0 0 -1
    outer loop
      vertex 2.02254 -1.46946 1.7
      vertex 2.02254 1.46946 1.7
      vertex 2.11082 1.33957 1.7
    endloop
  endfacet
  facet normal 0 0 -1
    outer loop
      vertex 1.92628 -1.59356 1.7
      vertex 2.02254 1.46946 1.7
      vertex 2.02254 -1.46946 1.7
    endloop
  endfacet
  facet normal 0 0 -1
    outer loop
      vertex 1.92628 -1.59356 1.7
      vertex 1.92628 1.59356 1.7
      vertex 2.02254 1.46946 1.7
    endloop
  endfacet
  facet normal 0 0 -1
    outer loop
      vertex 1.82242 -1.71137 1.7
      vertex 1.92628 1.59356 1.7
      vertex 1.92628 -1.59356 1.7
    endloop
  endfacet
  facet normal 0 0 -1
    outer loop
      vertex 1.82242 -1.71137 1.7
      vertex 1.82242 1.71137 1.7
      vertex 1.92628 1.59356 1.7
    endloop
  endfacet
  facet normal 0 0 -1
    outer loop
      vertex 1.71137 -1.82242 1.7
      vertex 1.82242 1.71137 1.7
      vertex 1.82242 -1.71137 1.7
    endloop
  endfacet
  facet normal 0 0 -1
    outer loop
      vertex 1.71137 -1.82242 1.7
      vertex 1.71137 1.82242 1.7
      vertex 1.82242 1.71137 1.7
    endloop
  endfacet
  facet normal 0 0 -1
    outer loop
      vertex 1.59356 -1.92628 1.7
      vertex 1.71137 1.82242 1.7
      vertex 1.71137 -1.82242 1.7
    endloop
  endfacet
  facet normal 0 0 -1
    outer loop
      vertex 1.59356 -1.92628 1.7
      vertex 1.59356 1.92628 1.7
      vertex 1.71137 1.82242 1.7
    endloop
  endfacet
  facet normal 0 0 -1
    outer loop
      vertex 1.46946 -2.02254 1.7
      vertex 1.59356 1.92628 1.7
      vertex 1.59356 -1.92628 1.7
    endloop
  endfacet
  facet normal 0 0 -1
    outer loop
      vertex 1.46946 -2.02254 1.7
      vertex 1.46946 2.02254 1.7
      vertex 1.59356 1.92628 1.7
    endloop
  endfacet
  facet normal 0 0 -1
    outer loop
      vertex 1.33957 -2.11082 1.7
      vertex 1.46946 2.02254 1.7
      vertex 1.46946 -2.02254 1.7
    endloop
  endfacet
  facet normal 0 0 -1
    outer loop
      vertex 1.33957 -2.11082 1.7
      vertex 1.33957 2.11082 1.7
      vertex 1.46946 2.02254 1.7
    endloop
  endfacet
  facet normal 0 0 -1
    outer loop
      vertex 1.20438 -2.19077 1.7
      vertex 1.33957 2.11082 1.7
      vertex 1.33957 -2.11082 1.7
    endloop
  endfacet
  facet normal 0 0 -1
    outer loop
      vertex 1.20438 -2.19077 1.7
      vertex 1.20438 2.19077 1.7
      vertex 1.33957 2.11082 1.7
    endloop
  endfacet
  facet normal 0 0 -1
    outer loop
      vertex 1.06445 -2.26207 1.7
      vertex 1.20438 2.19077 1.7
      vertex 1.20438 -2.19077 1.7
    endloop
  endfacet
  facet normal 0 0 -1
    outer loop
      vertex 1.06445 -2.26207 1.7
      vertex 1.06445 2.26207 1.7
      vertex 1.20438 2.19077 1.7
    endloop
  endfacet
  facet normal 0 0 -1
    outer loop
      vertex 0.920311 -2.32444 1.7
      vertex 1.06445 2.26207 1.7
      vertex 1.06445 -2.26207 1.7
    endloop
  endfacet
  facet normal 0 0 -1
    outer loop
      vertex 0.920311 -2.32444 1.7
      vertex 0.920311 2.32444 1.7
      vertex 1.06445 2.26207 1.7
    endloop
  endfacet
  facet normal 0 0 -1
    outer loop
      vertex 0.772542 -2.37764 1.7
      vertex 0.920311 2.32444 1.7
      vertex 0.920311 -2.32444 1.7
    endloop
  endfacet
  facet normal 0 0 -1
    outer loop
      vertex 0.772542 -2.37764 1.7
      vertex 0.772542 2.37764 1.7
      vertex 0.920311 2.32444 1.7
    endloop
  endfacet
  facet normal 0 0 -1
    outer loop
      vertex 0.621724 -2.42146 1.7
      vertex 0.772542 2.37764 1.7
      vertex 0.772542 -2.37764 1.7
    endloop
  endfacet
  facet normal 0 0 -1
    outer loop
      vertex 0.621724 -2.42146 1.7
      vertex 0.621724 2.42146 1.7
      vertex 0.772542 2.37764 1.7
    endloop
  endfacet
  facet normal 0 0 -1
    outer loop
      vertex 0.468452 -2.45572 1.7
      vertex 0.621724 2.42146 1.7
      vertex 0.621724 -2.42146 1.7
    endloop
  endfacet
  facet normal 0 0 -1
    outer loop
      vertex 0.468452 -2.45572 1.7
      vertex 0.468452 2.45572 1.7
      vertex 0.621724 2.42146 1.7
    endloop
  endfacet
  facet normal 0 0 -1
    outer loop
      vertex 0.313333 -2.48029 1.7
      vertex 0.468452 2.45572 1.7
      vertex 0.468452 -2.45572 1.7
    endloop
  endfacet
  facet normal 0 0 -1
    outer loop
      vertex 0.313333 -2.48029 1.7
      vertex 0.313333 2.48029 1.7
      vertex 0.468452 2.45572 1.7
    endloop
  endfacet
  facet normal 0 0 -1
    outer loop
      vertex 0.156976 -2.49507 1.7
      vertex 0.313333 2.48029 1.7
      vertex 0.313333 -2.48029 1.7
    endloop
  endfacet
  facet normal 0 0 -1
    outer loop
      vertex 0.156976 -2.49507 1.7
      vertex 0.156976 2.49507 1.7
      vertex 0.313333 2.48029 1.7
    endloop
  endfacet
  facet normal 0 0 -1
    outer loop
      vertex 0 -2.5 1.7
      vertex 0.156976 2.49507 1.7
      vertex 0.156976 -2.49507 1.7
    endloop
  endfacet
  facet normal 0 0 -1
    outer loop
      vertex 0 -2.5 1.7
      vertex 0 2.5 1.7
      vertex 0.156976 2.49507 1.7
    endloop
  endfacet
  facet normal 0 0 -1
    outer loop
      vertex -0.156976 -2.49507 1.7
      vertex 0 2.5 1.7
      vertex 0 -2.5 1.7
    endloop
  endfacet
  facet normal 0 0 -1
    outer loop
      vertex -0.156976 -2.49507 1.7
      vertex -0.156976 2.49507 1.7
      vertex 0 2.5 1.7
    endloop
  endfacet
  facet normal 0 0 -1
    outer loop
      vertex -0.313333 -2.48029 1.7
      vertex -0.156976 2.49507 1.7
      vertex -0.156976 -2.49507 1.7
    endloop
  endfacet
  facet normal 0 0 -1
    outer loop
      vertex -0.313333 -2.48029 1.7
      vertex -0.313333 2.48029 1.7
      vertex -0.156976 2.49507 1.7
    endloop
  endfacet
  facet normal 0 0 -1
    outer loop
      vertex -0.468452 -2.45572 1.7
      vertex -0.313333 2.48029 1.7
      vertex -0.313333 -2.48029 1.7
    endloop
  endfacet
  facet normal 0 0 -1
    outer loop
      vertex -0.468452 -2.45572 1.7
      vertex -0.468452 2.45572 1.7
      vertex -0.313333 2.48029 1.7
    endloop
  endfacet
  facet normal 0 0 -1
    outer loop
      vertex -0.621724 -2.42146 1.7
      vertex -0.468452 2.45572 1.7
      vertex -0.468452 -2.45572 1.7
    endloop
  endfacet
  facet normal 0 0 -1
    outer loop
      vertex -0.621724 -2.42146 1.7
      vertex -0.621724 2.42146 1.7
      vertex -0.468452 2.45572 1.7
    endloop
  endfacet
  facet normal 0 0 -1
    outer loop
      vertex -0.772542 -2.37764 1.7
      vertex -0.621724 2.42146 1.7
      vertex -0.621724 -2.42146 1.7
    endloop
  endfacet
  facet normal 0 0 -1
    outer loop
      vertex -0.772542 -2.37764 1.7
      vertex -0.772542 2.37764 1.7
      vertex -0.621724 2.42146 1.7
    endloop
  endfacet
  facet normal 0 0 -1
    outer loop
      vertex -0.920311 -2.32444 1.7
      vertex -0.772542 2.37764 1.7
      vertex -0.772542 -2.37764 1.7
    endloop
  endfacet
  facet normal 0 0 -1
    outer loop
      vertex -0.920311 -2.32444 1.7
      vertex -0.920311 2.32444 1.7
      vertex -0.772542 2.37764 1.7
    endloop
  endfacet
  facet normal 0 0 -1
    outer loop
      vertex -1.06445 -2.26207 1.7
      vertex -0.920311 2.32444 1.7
      vertex -0.920311 -2.32444 1.7
    endloop
  endfacet
  facet normal 0 0 -1
    outer loop
      vertex -1.06445 -2.26207 1.7
      vertex -1.06445 2.26207 1.7
      vertex -0.920311 2.32444 1.7
    endloop
  endfacet
  facet normal 0 0 -1
    outer loop
      vertex -1.20438 -2.19077 1.7
      vertex -1.06445 2.26207 1.7
      vertex -1.06445 -2.26207 1.7
    endloop
  endfacet
  facet normal 0 0 -1
    outer loop
      vertex -1.20438 -2.19077 1.7
      vertex -1.20438 2.19077 1.7
      vertex -1.06445 2.26207 1.7
    endloop
  endfacet
  facet normal 0 0 -1
    outer loop
      vertex -1.33957 -2.11082 1.7
      vertex -1.20438 2.19077 1.7
      vertex -1.20438 -2.19077 1.7
    endloop
  endfacet
  facet normal 0 0 -1
    outer loop
      vertex -1.33957 -2.11082 1.7
      vertex -1.33957 2.11082 1.7
      vertex -1.20438 2.19077 1.7
    endloop
  endfacet
  facet normal 0 0 -1
    outer loop
      vertex -1.46946 -2.02254 1.7
      vertex -1.33957 2.11082 1.7
      vertex -1.33957 -2.11082 1.7
    endloop
  endfacet
  facet normal 0 0 -1
    outer loop
      vertex -1.46946 -2.02254 1.7
      vertex -1.46946 2.02254 1.7
      vertex -1.33957 2.11082 1.7
    endloop
  endfacet
  facet normal 0 0 -1
    outer loop
      vertex -1.59356 -1.92628 1.7
      vertex -1.46946 2.02254 1.7
      vertex -1.46946 -2.02254 1.7
    endloop
  endfacet
  facet normal 0 0 -1
    outer loop
      vertex -1.59356 -1.92628 1.7
      vertex -1.59356 1.92628 1.7
      vertex -1.46946 2.02254 1.7
    endloop
  endfacet
  facet normal 0 0 -1
    outer loop
      vertex -1.71137 -1.82242 1.7
      vertex -1.59356 1.92628 1.7
      vertex -1.59356 -1.92628 1.7
    endloop
  endfacet
  facet normal 0 0 -1
    outer loop
      vertex -1.71137 -1.82242 1.7
      vertex -1.71137 1.82242 1.7
      vertex -1.59356 1.92628 1.7
    endloop
  endfacet
  facet normal 0 0 -1
    outer loop
      vertex -1.82242 -1.71137 1.7
      vertex -1.71137 1.82242 1.7
      vertex -1.71137 -1.82242 1.7
    endloop
  endfacet
  facet normal 0 0 -1
    outer loop
      vertex -1.82242 -1.71137 1.7
      vertex -1.82242 1.71137 1.7
      vertex -1.71137 1.82242 1.7
    endloop
  endfacet
  facet normal 0 0 -1
    outer loop
      vertex -1.92628 -1.59356 1.7
      vertex -1.82242 1.71137 1.7
      vertex -1.82242 -1.71137 1.7
    endloop
  endfacet
  facet normal 0 0 -1
    outer loop
      vertex -1.92628 -1.59356 1.7
      vertex -1.92628 1.59356 1.7
      vertex -1.82242 1.71137 1.7
    endloop
  endfacet
  facet normal 0 0 -1
    outer loop
      vertex -2.02254 -1.46946 1.7
      vertex -1.92628 1.59356 1.7
      vertex -1.92628 -1.59356 1.7
    endloop
  endfacet
  facet normal 0 0 -1
    outer loop
      vertex -2.02254 -1.46946 1.7
      vertex -2.02254 1.46946 1.7
      vertex -1.92628 1.59356 1.7
    endloop
  endfacet
  facet normal 0 0 -1
    outer loop
      vertex -2.11082 -1.33957 1.7
      vertex -2.02254 1.46946 1.7
      vertex -2.02254 -1.46946 1.7
    endloop
  endfacet
  facet normal 0 0 -1
    outer loop
      vertex -2.11082 -1.33957 1.7
      vertex -2.11082 1.33957 1.7
      vertex -2.02254 1.46946 1.7
    endloop
  endfacet
  facet normal 0 0 -1
    outer loop
      vertex -2.19077 -1.20438 1.7
      vertex -2.11082 1.33957 1.7
      vertex -2.11082 -1.33957 1.7
    endloop
  endfacet
  facet normal 0 0 -1
    outer loop
      vertex -2.19077 -1.20438 1.7
      vertex -2.19077 1.20438 1.7
      vertex -2.11082 1.33957 1.7
    endloop
  endfacet
  facet normal 0 0 -1
    outer loop
      vertex -2.26207 -1.06445 1.7
      vertex -2.19077 1.20438 1.7
      vertex -2.19077 -1.20438 1.7
    endloop
  endfacet
  facet normal 0 0 -1
    outer loop
      vertex -2.26207 -1.06445 1.7
      vertex -2.26207 1.06445 1.7
      vertex -2.19077 1.20438 1.7
    endloop
  endfacet
  facet normal 0 0 -1
    outer loop
      vertex -2.32444 -0.920311 1.7
      vertex -2.26207 1.06445 1.7
      vertex -2.26207 -1.06445 1.7
    endloop
  endfacet
  facet normal 0 0 -1
    outer loop
      vertex -2.32444 -0.920311 1.7
      vertex -2.32444 0.920311 1.7
      vertex -2.26207 1.06445 1.7
    endloop
  endfacet
  facet normal 0 0 -1
    outer loop
      vertex -2.37764 -0.772542 1.7
      vertex -2.32444 0.920311 1.7
      vertex -2.32444 -0.920311 1.7
    endloop
  endfacet
  facet normal 0 0 -1
    outer loop
      vertex -2.37764 -0.772542 1.7
      vertex -2.37764 0.772542 1.7
      vertex -2.32444 0.920311 1.7
    endloop
  endfacet
  facet normal 0 0 -1
    outer loop
      vertex -2.42146 -0.621724 1.7
      vertex -2.37764 0.772542 1.7
      vertex -2.37764 -0.772542 1.7
    endloop
  endfacet
  facet normal 0 0 -1
    outer loop
      vertex -2.42146 -0.621724 1.7
      vertex -2.42146 0.621724 1.7
      vertex -2.37764 0.772542 1.7
    endloop
  endfacet
  facet normal 0 0 -1
    outer loop
      vertex -2.45572 -0.468452 1.7
      vertex -2.42146 0.621724 1.7
      vertex -2.42146 -0.621724 1.7
    endloop
  endfacet
  facet normal 0 0 -1
    outer loop
      vertex -2.45572 -0.468452 1.7
      vertex -2.45572 0.468452 1.7
      vertex -2.42146 0.621724 1.7
    endloop
  endfacet
  facet normal 0 0 -1
    outer loop
      vertex -2.48029 -0.313333 1.7
      vertex -2.45572 0.468452 1.7
      vertex -2.45572 -0.468452 1.7
    endloop
  endfacet
  facet normal 0 0 -1
    outer loop
      vertex -2.48029 -0.313333 1.7
      vertex -2.48029 0.313333 1.7
      vertex -2.45572 0.468452 1.7
    endloop
  endfacet
  facet normal 0 0 -1
    outer loop
      vertex -2.49507 -0.156976 1.7
      vertex -2.48029 0.313333 1.7
      vertex -2.48029 -0.313333 1.7
    endloop
  endfacet
  facet normal 0 0 -1
    outer loop
      vertex -2.49507 -0.156976 1.7
      vertex -2.49507 0.156976 1.7
      vertex -2.48029 0.313333 1.7
    endloop
  endfacet
  facet normal 0 -0 -1
    outer loop
      vertex -2.49507 0.156976 1.7
      vertex -2.49507 -0.156976 1.7
      vertex -2.5 0 1.7
    endloop
  endfacet
  facet normal 0.453987 -0.891008 0
    outer loop
      vertex -1.20438 2.19077 0
      vertex -1.06445 2.26207 1.7
      vertex -1.20438 2.19077 1.7
    endloop
  endfacet
  facet normal 0.453987 -0.891008 0
    outer loop
      vertex -1.06445 2.26207 1.7
      vertex -1.20438 2.19077 0
      vertex -1.06445 2.26207 0
    endloop
  endfacet
  facet normal 0.397152 -0.917753 0
    outer loop
      vertex -1.06445 2.26207 0
      vertex -0.920311 2.32444 1.7
      vertex -1.06445 2.26207 1.7
    endloop
  endfacet
  facet normal 0.397152 -0.917753 0
    outer loop
      vertex -0.920311 2.32444 1.7
      vertex -1.06445 2.26207 0
      vertex -0.920311 2.32444 0
    endloop
  endfacet
  facet normal 0.612906 -0.790156 0
    outer loop
      vertex -1.59356 1.92628 0
      vertex -1.46946 2.02254 1.7
      vertex -1.59356 1.92628 1.7
    endloop
  endfacet
  facet normal 0.612906 -0.790156 0
    outer loop
      vertex -1.46946 2.02254 1.7
      vertex -1.59356 1.92628 0
      vertex -1.46946 2.02254 0
    endloop
  endfacet
  facet normal 0.218146 -0.975916 0
    outer loop
      vertex -0.621724 2.42146 0
      vertex -0.468452 2.45572 1.7
      vertex -0.621724 2.42146 1.7
    endloop
  endfacet
  facet normal 0.218146 -0.975916 0
    outer loop
      vertex -0.468452 2.45572 1.7
      vertex -0.621724 2.42146 0
      vertex -0.468452 2.45572 0
    endloop
  endfacet
  facet normal 0.278991 -0.960294 0
    outer loop
      vertex -0.772542 2.37764 0
      vertex -0.621724 2.42146 1.7
      vertex -0.772542 2.37764 1.7
    endloop
  endfacet
  facet normal 0.278991 -0.960294 0
    outer loop
      vertex -0.621724 2.42146 1.7
      vertex -0.772542 2.37764 0
      vertex -0.621724 2.42146 0
    endloop
  endfacet
  facet normal 0.031412 -0.999507 0
    outer loop
      vertex -0.156976 2.49507 0
      vertex 0 2.5 1.7
      vertex -0.156976 2.49507 1.7
    endloop
  endfacet
  facet normal 0.031412 -0.999507 0
    outer loop
      vertex 0 2.5 1.7
      vertex -0.156976 2.49507 0
      vertex 0 2.5 0
    endloop
  endfacet
  facet normal -0.987688 0.156434 0
    outer loop
      vertex 2.45572 -0.468452 0
      vertex 2.48029 -0.313333 1.7
      vertex 2.48029 -0.313333 0
    endloop
  endfacet
  facet normal -0.987688 0.156434 0
    outer loop
      vertex 2.48029 -0.313333 1.7
      vertex 2.45572 -0.468452 0
      vertex 2.45572 -0.468452 1.7
    endloop
  endfacet
  facet normal -0.999507 0.031412 0
    outer loop
      vertex 2.49507 -0.156976 0
      vertex 2.5 0 1.7
      vertex 2.5 0 0
    endloop
  endfacet
  facet normal -0.999507 0.031412 0
    outer loop
      vertex 2.5 0 1.7
      vertex 2.49507 -0.156976 0
      vertex 2.49507 -0.156976 1.7
    endloop
  endfacet
  facet normal -0.031412 0.999507 0
    outer loop
      vertex 0.156976 -2.49507 0
      vertex 0 -2.5 1.7
      vertex 0.156976 -2.49507 1.7
    endloop
  endfacet
  facet normal -0.031412 0.999507 0
    outer loop
      vertex 0 -2.5 1.7
      vertex 0.156976 -2.49507 0
      vertex 0 -2.5 0
    endloop
  endfacet
  facet normal -0.156434 0.987688 0
    outer loop
      vertex 0.468452 -2.45572 0
      vertex 0.313333 -2.48029 1.7
      vertex 0.468452 -2.45572 1.7
    endloop
  endfacet
  facet normal -0.156434 0.987688 0
    outer loop
      vertex 0.313333 -2.48029 1.7
      vertex 0.468452 -2.45572 0
      vertex 0.313333 -2.48029 0
    endloop
  endfacet
  facet normal -0.338736 0.940881 0
    outer loop
      vertex 0.920311 -2.32444 0
      vertex 0.772542 -2.37764 1.7
      vertex 0.920311 -2.32444 1.7
    endloop
  endfacet
  facet normal -0.338736 0.940881 0
    outer loop
      vertex 0.772542 -2.37764 1.7
      vertex 0.920311 -2.32444 0
      vertex 0.772542 -2.37764 0
    endloop
  endfacet
  facet normal -0.218146 0.975916 0
    outer loop
      vertex 0.621724 -2.42146 0
      vertex 0.468452 -2.45572 1.7
      vertex 0.621724 -2.42146 1.7
    endloop
  endfacet
  facet normal -0.218146 0.975916 0
    outer loop
      vertex 0.468452 -2.45572 1.7
      vertex 0.621724 -2.42146 0
      vertex 0.468452 -2.45572 0
    endloop
  endfacet
  facet normal -0.612906 0.790156 0
    outer loop
      vertex 1.59356 -1.92628 0
      vertex 1.46946 -2.02254 1.7
      vertex 1.59356 -1.92628 1.7
    endloop
  endfacet
  facet normal -0.612906 0.790156 0
    outer loop
      vertex 1.46946 -2.02254 1.7
      vertex 1.59356 -1.92628 0
      vertex 1.46946 -2.02254 0
    endloop
  endfacet
  facet normal -0.707107 0.707107 0
    outer loop
      vertex 1.71137 -1.82242 0
      vertex 1.82242 -1.71137 1.7
      vertex 1.82242 -1.71137 0
    endloop
  endfacet
  facet normal -0.707107 0.707107 0
    outer loop
      vertex 1.82242 -1.71137 1.7
      vertex 1.71137 -1.82242 0
      vertex 1.71137 -1.82242 1.7
    endloop
  endfacet
  facet normal -0.509045 0.86074 0
    outer loop
      vertex 1.33957 -2.11082 0
      vertex 1.20438 -2.19077 1.7
      vertex 1.33957 -2.11082 1.7
    endloop
  endfacet
  facet normal -0.509045 0.86074 0
    outer loop
      vertex 1.20438 -2.19077 1.7
      vertex 1.33957 -2.11082 0
      vertex 1.20438 -2.19077 0
    endloop
  endfacet
  facet normal -0.397152 0.917753 0
    outer loop
      vertex 1.06445 -2.26207 0
      vertex 0.920311 -2.32444 1.7
      vertex 1.06445 -2.26207 1.7
    endloop
  endfacet
  facet normal -0.397152 0.917753 0
    outer loop
      vertex 0.920311 -2.32444 1.7
      vertex 1.06445 -2.26207 0
      vertex 0.920311 -2.32444 0
    endloop
  endfacet
  facet normal -0.750112 0.661311 0
    outer loop
      vertex 1.82242 -1.71137 0
      vertex 1.92628 -1.59356 1.7
      vertex 1.92628 -1.59356 0
    endloop
  endfacet
  facet normal -0.750112 0.661311 0
    outer loop
      vertex 1.92628 -1.59356 1.7
      vertex 1.82242 -1.71137 0
      vertex 1.82242 -1.71137 1.7
    endloop
  endfacet
  facet normal -0.827082 0.562081 0
    outer loop
      vertex 2.02254 -1.46946 0
      vertex 2.11082 -1.33957 1.7
      vertex 2.11082 -1.33957 0
    endloop
  endfacet
  facet normal -0.827082 0.562081 0
    outer loop
      vertex 2.11082 -1.33957 1.7
      vertex 2.02254 -1.46946 0
      vertex 2.02254 -1.46946 1.7
    endloop
  endfacet
  facet normal -0.891008 0.453987 0
    outer loop
      vertex 2.19077 -1.20438 0
      vertex 2.26207 -1.06445 1.7
      vertex 2.26207 -1.06445 0
    endloop
  endfacet
  facet normal -0.891008 0.453987 0
    outer loop
      vertex 2.26207 -1.06445 1.7
      vertex 2.19077 -1.20438 0
      vertex 2.19077 -1.20438 1.7
    endloop
  endfacet
  facet normal -0.940881 0.338736 0
    outer loop
      vertex 2.32444 -0.920311 0
      vertex 2.37764 -0.772542 1.7
      vertex 2.37764 -0.772542 0
    endloop
  endfacet
  facet normal -0.940881 0.338736 0
    outer loop
      vertex 2.37764 -0.772542 1.7
      vertex 2.32444 -0.920311 0
      vertex 2.32444 -0.920311 1.7
    endloop
  endfacet
  facet normal 0.661311 0.750112 -0
    outer loop
      vertex -1.59356 -1.92628 0
      vertex -1.71137 -1.82242 1.7
      vertex -1.59356 -1.92628 1.7
    endloop
  endfacet
  facet normal 0.661311 0.750112 0
    outer loop
      vertex -1.71137 -1.82242 1.7
      vertex -1.59356 -1.92628 0
      vertex -1.71137 -1.82242 0
    endloop
  endfacet
  facet normal 0.453987 0.891008 -0
    outer loop
      vertex -1.06445 -2.26207 0
      vertex -1.20438 -2.19077 1.7
      vertex -1.06445 -2.26207 1.7
    endloop
  endfacet
  facet normal 0.453987 0.891008 0
    outer loop
      vertex -1.20438 -2.19077 1.7
      vertex -1.06445 -2.26207 0
      vertex -1.20438 -2.19077 0
    endloop
  endfacet
  facet normal 0.562081 0.827082 -0
    outer loop
      vertex -1.33957 -2.11082 0
      vertex -1.46946 -2.02254 1.7
      vertex -1.33957 -2.11082 1.7
    endloop
  endfacet
  facet normal 0.562081 0.827082 0
    outer loop
      vertex -1.46946 -2.02254 1.7
      vertex -1.33957 -2.11082 0
      vertex -1.46946 -2.02254 0
    endloop
  endfacet
  facet normal 0.218146 0.975916 -0
    outer loop
      vertex -0.468452 -2.45572 0
      vertex -0.621724 -2.42146 1.7
      vertex -0.468452 -2.45572 1.7
    endloop
  endfacet
  facet normal 0.218146 0.975916 0
    outer loop
      vertex -0.621724 -2.42146 1.7
      vertex -0.468452 -2.45572 0
      vertex -0.621724 -2.42146 0
    endloop
  endfacet
  facet normal 0.278991 0.960294 -0
    outer loop
      vertex -0.621724 -2.42146 0
      vertex -0.772542 -2.37764 1.7
      vertex -0.621724 -2.42146 1.7
    endloop
  endfacet
  facet normal 0.278991 0.960294 0
    outer loop
      vertex -0.772542 -2.37764 1.7
      vertex -0.621724 -2.42146 0
      vertex -0.772542 -2.37764 0
    endloop
  endfacet
  facet normal 0.0941082 0.995562 -0
    outer loop
      vertex -0.156976 -2.49507 0
      vertex -0.313333 -2.48029 1.7
      vertex -0.156976 -2.49507 1.7
    endloop
  endfacet
  facet normal 0.0941082 0.995562 0
    outer loop
      vertex -0.313333 -2.48029 1.7
      vertex -0.156976 -2.49507 0
      vertex -0.313333 -2.48029 0
    endloop
  endfacet
  facet normal 0.86074 0.509045 0
    outer loop
      vertex -2.11082 -1.33957 1.7
      vertex -2.19077 -1.20438 0
      vertex -2.19077 -1.20438 1.7
    endloop
  endfacet
  facet normal 0.86074 0.509045 0
    outer loop
      vertex -2.19077 -1.20438 0
      vertex -2.11082 -1.33957 1.7
      vertex -2.11082 -1.33957 0
    endloop
  endfacet
  facet normal 0.917753 0.397152 0
    outer loop
      vertex -2.26207 -1.06445 1.7
      vertex -2.32444 -0.920311 0
      vertex -2.32444 -0.920311 1.7
    endloop
  endfacet
  facet normal 0.917753 0.397152 0
    outer loop
      vertex -2.32444 -0.920311 0
      vertex -2.26207 -1.06445 1.7
      vertex -2.26207 -1.06445 0
    endloop
  endfacet
  facet normal 0.891008 0.453987 0
    outer loop
      vertex -2.19077 -1.20438 1.7
      vertex -2.26207 -1.06445 0
      vertex -2.26207 -1.06445 1.7
    endloop
  endfacet
  facet normal 0.891008 0.453987 0
    outer loop
      vertex -2.26207 -1.06445 0
      vertex -2.19077 -1.20438 1.7
      vertex -2.19077 -1.20438 0
    endloop
  endfacet
  facet normal 0.790156 0.612906 0
    outer loop
      vertex -1.92628 -1.59356 1.7
      vertex -2.02254 -1.46946 0
      vertex -2.02254 -1.46946 1.7
    endloop
  endfacet
  facet normal 0.790156 0.612906 0
    outer loop
      vertex -2.02254 -1.46946 0
      vertex -1.92628 -1.59356 1.7
      vertex -1.92628 -1.59356 0
    endloop
  endfacet
  facet normal 0.940881 0.338736 0
    outer loop
      vertex -2.32444 -0.920311 1.7
      vertex -2.37764 -0.772542 0
      vertex -2.37764 -0.772542 1.7
    endloop
  endfacet
  facet normal 0.940881 0.338736 0
    outer loop
      vertex -2.37764 -0.772542 0
      vertex -2.32444 -0.920311 1.7
      vertex -2.32444 -0.920311 0
    endloop
  endfacet
  facet normal 0.975916 0.218146 0
    outer loop
      vertex -2.42146 -0.621724 1.7
      vertex -2.45572 -0.468452 0
      vertex -2.45572 -0.468452 1.7
    endloop
  endfacet
  facet normal 0.975916 0.218146 0
    outer loop
      vertex -2.45572 -0.468452 0
      vertex -2.42146 -0.621724 1.7
      vertex -2.42146 -0.621724 0
    endloop
  endfacet
  facet normal 0.960294 0.278991 0
    outer loop
      vertex -2.37764 -0.772542 1.7
      vertex -2.42146 -0.621724 0
      vertex -2.42146 -0.621724 1.7
    endloop
  endfacet
  facet normal 0.960294 0.278991 0
    outer loop
      vertex -2.42146 -0.621724 0
      vertex -2.37764 -0.772542 1.7
      vertex -2.37764 -0.772542 0
    endloop
  endfacet
  facet normal 0.987688 0.156434 0
    outer loop
      vertex -2.45572 -0.468452 1.7
      vertex -2.48029 -0.313333 0
      vertex -2.48029 -0.313333 1.7
    endloop
  endfacet
  facet normal 0.987688 0.156434 0
    outer loop
      vertex -2.48029 -0.313333 0
      vertex -2.45572 -0.468452 1.7
      vertex -2.45572 -0.468452 0
    endloop
  endfacet
  facet normal 0.999507 0.031412 0
    outer loop
      vertex -2.49507 -0.156976 1.7
      vertex -2.5 0 0
      vertex -2.5 0 1.7
    endloop
  endfacet
  facet normal 0.999507 0.031412 0
    outer loop
      vertex -2.5 0 0
      vertex -2.49507 -0.156976 1.7
      vertex -2.49507 -0.156976 0
    endloop
  endfacet
  facet normal -0.960294 0.278991 0
    outer loop
      vertex 2.37764 -0.772542 0
      vertex 2.42146 -0.621724 1.7
      vertex 2.42146 -0.621724 0
    endloop
  endfacet
  facet normal -0.960294 0.278991 0
    outer loop
      vertex 2.42146 -0.621724 1.7
      vertex 2.37764 -0.772542 0
      vertex 2.37764 -0.772542 1.7
    endloop
  endfacet
  facet normal -0.0941082 0.995562 0
    outer loop
      vertex 0.313333 -2.48029 0
      vertex 0.156976 -2.49507 1.7
      vertex 0.313333 -2.48029 1.7
    endloop
  endfacet
  facet normal -0.0941082 0.995562 0
    outer loop
      vertex 0.156976 -2.49507 1.7
      vertex 0.313333 -2.48029 0
      vertex 0.156976 -2.49507 0
    endloop
  endfacet
  facet normal -0.278991 0.960294 0
    outer loop
      vertex 0.772542 -2.37764 0
      vertex 0.621724 -2.42146 1.7
      vertex 0.772542 -2.37764 1.7
    endloop
  endfacet
  facet normal -0.278991 0.960294 0
    outer loop
      vertex 0.621724 -2.42146 1.7
      vertex 0.772542 -2.37764 0
      vertex 0.621724 -2.42146 0
    endloop
  endfacet
  facet normal -0.661311 0.750112 0
    outer loop
      vertex 1.71137 -1.82242 0
      vertex 1.59356 -1.92628 1.7
      vertex 1.71137 -1.82242 1.7
    endloop
  endfacet
  facet normal -0.661311 0.750112 0
    outer loop
      vertex 1.59356 -1.92628 1.7
      vertex 1.71137 -1.82242 0
      vertex 1.59356 -1.92628 0
    endloop
  endfacet
  facet normal -0.453987 0.891008 0
    outer loop
      vertex 1.20438 -2.19077 0
      vertex 1.06445 -2.26207 1.7
      vertex 1.20438 -2.19077 1.7
    endloop
  endfacet
  facet normal -0.453987 0.891008 0
    outer loop
      vertex 1.06445 -2.26207 1.7
      vertex 1.20438 -2.19077 0
      vertex 1.06445 -2.26207 0
    endloop
  endfacet
  facet normal -0.790156 0.612906 0
    outer loop
      vertex 1.92628 -1.59356 0
      vertex 2.02254 -1.46946 1.7
      vertex 2.02254 -1.46946 0
    endloop
  endfacet
  facet normal -0.790156 0.612906 0
    outer loop
      vertex 2.02254 -1.46946 1.7
      vertex 1.92628 -1.59356 0
      vertex 1.92628 -1.59356 1.7
    endloop
  endfacet
  facet normal 0.612906 0.790156 -0
    outer loop
      vertex -1.46946 -2.02254 0
      vertex -1.59356 -1.92628 1.7
      vertex -1.46946 -2.02254 1.7
    endloop
  endfacet
  facet normal 0.612906 0.790156 0
    outer loop
      vertex -1.59356 -1.92628 1.7
      vertex -1.46946 -2.02254 0
      vertex -1.59356 -1.92628 0
    endloop
  endfacet
  facet normal 0.509045 0.86074 -0
    outer loop
      vertex -1.20438 -2.19077 0
      vertex -1.33957 -2.11082 1.7
      vertex -1.20438 -2.19077 1.7
    endloop
  endfacet
  facet normal 0.509045 0.86074 0
    outer loop
      vertex -1.33957 -2.11082 1.7
      vertex -1.20438 -2.19077 0
      vertex -1.33957 -2.11082 0
    endloop
  endfacet
  facet normal 0.995562 0.0941082 0
    outer loop
      vertex -2.48029 -0.313333 1.7
      vertex -2.49507 -0.156976 0
      vertex -2.49507 -0.156976 1.7
    endloop
  endfacet
  facet normal 0.995562 0.0941082 0
    outer loop
      vertex -2.49507 -0.156976 0
      vertex -2.48029 -0.313333 1.7
      vertex -2.48029 -0.313333 0
    endloop
  endfacet
  facet normal -0.995562 0.0941082 0
    outer loop
      vertex 2.48029 -0.313333 0
      vertex 2.49507 -0.156976 1.7
      vertex 2.49507 -0.156976 0
    endloop
  endfacet
  facet normal -0.995562 0.0941082 0
    outer loop
      vertex 2.49507 -0.156976 1.7
      vertex 2.48029 -0.313333 0
      vertex 2.48029 -0.313333 1.7
    endloop
  endfacet
  facet normal -0.975916 0.218146 0
    outer loop
      vertex 2.42146 -0.621724 0
      vertex 2.45572 -0.468452 1.7
      vertex 2.45572 -0.468452 0
    endloop
  endfacet
  facet normal -0.975916 0.218146 0
    outer loop
      vertex 2.45572 -0.468452 1.7
      vertex 2.42146 -0.621724 0
      vertex 2.42146 -0.621724 1.7
    endloop
  endfacet
  facet normal -1 0 0
    outer loop
      vertex -10 -10 0
      vertex -10 10 3
      vertex -10 10 0
    endloop
  endfacet
  facet normal -1 -0 0
    outer loop
      vertex -10 10 3
      vertex -10 -10 0
      vertex -10 -10 3
    endloop
  endfacet
  facet normal 0 0 1
    outer loop
      vertex -1.2 -3.1 3
      vertex -2.6 -3.1 3
      vertex -1.2 -5 3
    endloop
  endfacet
  facet normal 0 0 1
    outer loop
      vertex 10 10 3
      vertex 4.8 5 3
      vertex 10 -10 3
    endloop
  endfacet
  facet normal 0 0 1
    outer loop
      vertex 10 10 3
      vertex -1.2 5 3
      vertex 4.8 5 3
    endloop
  endfacet
  facet normal 0 0 1
    outer loop
      vertex -1.2 5 3
      vertex -2.6 3.1 3
      vertex -1.2 3.1 3
    endloop
  endfacet
  facet normal 0 0 1
    outer loop
      vertex -2.6 3.1 3
      vertex -10 10 3
      vertex -2.6 -3.1 3
    endloop
  endfacet
  facet normal 0 0 1
    outer loop
      vertex -1.2 5 3
      vertex -10 10 3
      vertex -2.6 3.1 3
    endloop
  endfacet
  facet normal -0 0 1
    outer loop
      vertex -10 10 3
      vertex -1.2 5 3
      vertex 10 10 3
    endloop
  endfacet
  facet normal -0 0 1
    outer loop
      vertex 4.8 -5 3
      vertex 10 -10 3
      vertex 4.8 5 3
    endloop
  endfacet
  facet normal -0 0 1
    outer loop
      vertex -1.2 -5 3
      vertex 10 -10 3
      vertex 4.8 -5 3
    endloop
  endfacet
  facet normal 0 0 1
    outer loop
      vertex -1.2 -5 3
      vertex -10 -10 3
      vertex 10 -10 3
    endloop
  endfacet
  facet normal 0 0 1
    outer loop
      vertex -2.6 -3.1 3
      vertex -10 -10 3
      vertex -1.2 -5 3
    endloop
  endfacet
  facet normal 0 0 1
    outer loop
      vertex -10 -10 3
      vertex -2.6 -3.1 3
      vertex -10 10 3
    endloop
  endfacet
  facet normal 1 -0 0
    outer loop
      vertex 10 -10 3
      vertex 10 10 0
      vertex 10 10 3
    endloop
  endfacet
  facet normal 1 0 0
    outer loop
      vertex 10 10 0
      vertex 10 -10 3
      vertex 10 -10 0
    endloop
  endfacet
  facet normal 0 1 -0
    outer loop
      vertex 10 10 0
      vertex -10 10 3
      vertex 10 10 3
    endloop
  endfacet
  facet normal 0 1 0
    outer loop
      vertex -10 10 3
      vertex 10 10 0
      vertex -10 10 0
    endloop
  endfacet
  facet normal 0 -1 0
    outer loop
      vertex -10 -10 0
      vertex 10 -10 3
      vertex -10 -10 3
    endloop
  endfacet
  facet normal 0 -1 -0
    outer loop
      vertex 10 -10 3
      vertex -10 -10 0
      vertex 10 -10 0
    endloop
  endfacet
  facet normal -1 0 0
    outer loop
      vertex -6.2 -2.1 14.4737
      vertex -6.2 2.1 14.8
      vertex -6.2 2.1 14.4737
    endloop
  endfacet
  facet normal -1 -0 0
    outer loop
      vertex -6.2 2.1 14.8
      vertex -6.2 -2.1 14.4737
      vertex -6.2 -2.1 14.8
    endloop
  endfacet
  facet normal -0 0 1
    outer loop
      vertex -5.2 2.1 14.8
      vertex -1.2 -2.1 14.8
      vertex -1.2 2.1 14.8
    endloop
  endfacet
  facet normal 0 0 1
    outer loop
      vertex -5.2 2.1 14.8
      vertex -5.2 -2.1 14.8
      vertex -1.2 -2.1 14.8
    endloop
  endfacet
  facet normal -0 0 1
    outer loop
      vertex -6.2 2.1 14.8
      vertex -5.2 -2.1 14.8
      vertex -5.2 2.1 14.8
    endloop
  endfacet
  facet normal 0 0 1
    outer loop
      vertex -5.2 -2.1 14.8
      vertex -6.2 2.1 14.8
      vertex -6.2 -2.1 14.8
    endloop
  endfacet
  facet normal -1 0 0
    outer loop
      vertex -1.2 -5 3
      vertex -1.2 -3.1 12.1
      vertex -1.2 -3.1 3
    endloop
  endfacet
  facet normal -1 0 0
    outer loop
      vertex -1.2 -5 14.8
      vertex -1.2 -3.1 12.1
      vertex -1.2 -5 3
    endloop
  endfacet
  facet normal -1 0 0
    outer loop
      vertex -1.2 -3.1 12.1
      vertex -1.2 -5 14.8
      vertex -1.2 -3.1 14.8
    endloop
  endfacet
  facet normal -1 0 0
    outer loop
      vertex -1.2 3.1 3
      vertex -1.2 5 14.8
      vertex -1.2 5 3
    endloop
  endfacet
  facet normal -1 -0 0
    outer loop
      vertex -1.2 5 14.8
      vertex -1.2 3.1 3
      vertex -1.2 3.1 14.8
    endloop
  endfacet
  facet normal 0 1 -0
    outer loop
      vertex 2.6 2.1 14
      vertex -1.2 2.1 14.8
      vertex 3.3 2.1 14.8
    endloop
  endfacet
  facet normal 0 1 0
    outer loop
      vertex -1.2 2.1 14.8
      vertex 2.6 2.1 14
      vertex -2.6 2.1 14
    endloop
  endfacet
  facet normal 0 1 -0
    outer loop
      vertex 3.3 2.1 12.1
      vertex 2.6 2.1 14
      vertex 3.3 2.1 14.8
    endloop
  endfacet
  facet normal 0 1 0
    outer loop
      vertex 2.6 2.1 14
      vertex 3.3 2.1 12.1
      vertex 2.6 2.1 12.1
    endloop
  endfacet
  facet normal 0 1 0
    outer loop
      vertex -5.2 2.1 14.8
      vertex -1.2 2.1 14.8
      vertex -5.2 2.1 14.1503
    endloop
  endfacet
  facet normal 0 1 0
    outer loop
      vertex -1.2 2.1 14.8
      vertex -2.6 2.1 14
      vertex -5.2 2.1 14.1503
    endloop
  endfacet
  facet normal 0 1 0
    outer loop
      vertex -2.86379 2.1 13.3
      vertex -2.6 2.1 14
      vertex -2.6 2.1 13.3
    endloop
  endfacet
  facet normal 0 1 0
    outer loop
      vertex -2.6 2.1 14
      vertex -2.86379 2.1 13.3
      vertex -5.2 2.1 14.1503
    endloop
  endfacet
  facet normal 0 1 0
    outer loop
      vertex -5.2 2.1 14.8
      vertex -6.18697 2.1 14.5095
      vertex -6.2 2.1 14.8
    endloop
  endfacet
  facet normal -0 1 0
    outer loop
      vertex -6.18697 2.1 14.5095
      vertex -5.2 2.1 14.8
      vertex -5.2 2.1 14.1503
    endloop
  endfacet
  facet normal 0 1 0
    outer loop
      vertex -6.2 2.1 14.8
      vertex -6.18697 2.1 14.5095
      vertex -6.2 2.1 14.4737
    endloop
  endfacet
  facet normal 0 0 -1
    outer loop
      vertex -2.86379 -2.1 13.3
      vertex -2.6 2.1 13.3
      vertex -2.6 -2.1 13.3
    endloop
  endfacet
  facet normal -0 0 -1
    outer loop
      vertex -2.6 2.1 13.3
      vertex -2.86379 -2.1 13.3
      vertex -2.86379 2.1 13.3
    endloop
  endfacet
  facet normal 0 -1 0
    outer loop
      vertex -6.2 -2.1 14.8
      vertex -6.18697 -2.1 14.5095
      vertex -5.2 -2.1 14.8
    endloop
  endfacet
  facet normal -0 -1 0
    outer loop
      vertex -6.18697 -2.1 14.5095
      vertex -6.2 -2.1 14.8
      vertex -6.2 -2.1 14.4737
    endloop
  endfacet
  facet normal 0 -1 -0
    outer loop
      vertex -5.2 -2.1 14.8
      vertex -6.18697 -2.1 14.5095
      vertex -5.2 -2.1 14.1503
    endloop
  endfacet
  facet normal 0 -1 0
    outer loop
      vertex -2.86379 -2.1 13.3
      vertex -2.6 -2.1 14
      vertex -5.2 -2.1 14.1503
    endloop
  endfacet
  facet normal 0 -1 -0
    outer loop
      vertex -2.6 -2.1 14
      vertex -2.86379 -2.1 13.3
      vertex -2.6 -2.1 13.3
    endloop
  endfacet
  facet normal 0 -1 0
    outer loop
      vertex -2.6 -2.1 14
      vertex -1.2 -2.1 14.8
      vertex -5.2 -2.1 14.8
    endloop
  endfacet
  facet normal 0 -1 0
    outer loop
      vertex -2.6 -2.1 14
      vertex -5.2 -2.1 14.8
      vertex -5.2 -2.1 14.1503
    endloop
  endfacet
  facet normal 0 -1 0
    outer loop
      vertex 3 -2.1 14
      vertex -1.2 -2.1 14.8
      vertex -2.6 -2.1 14
    endloop
  endfacet
  facet normal 0 -1 0
    outer loop
      vertex -1.2 -2.1 14.8
      vertex 3 -2.1 14
      vertex 3.3 -2.1 14.8
    endloop
  endfacet
  facet normal 0 -1 0
    outer loop
      vertex 3.3 -2.1 12.1
      vertex 3 -2.1 14
      vertex 3 -2.1 12.1
    endloop
  endfacet
  facet normal 0 -1 0
    outer loop
      vertex 3 -2.1 14
      vertex 3.3 -2.1 12.1
      vertex 3.3 -2.1 14.8
    endloop
  endfacet
  facet normal 0.939694 0 -0.342016
    outer loop
      vertex -6.18697 -2.1 14.5095
      vertex -6.2 2.1 14.4737
      vertex -6.18697 2.1 14.5095
    endloop
  endfacet
  facet normal 0.939694 0 -0.342016
    outer loop
      vertex -6.2 2.1 14.4737
      vertex -6.18697 -2.1 14.5095
      vertex -6.2 -2.1 14.4737
    endloop
  endfacet
  facet normal -0.34202 0 -0.939693
    outer loop
      vertex -5.2 -2.1 14.1503
      vertex -2.86379 2.1 13.3
      vertex -2.86379 -2.1 13.3
    endloop
  endfacet
  facet normal -0.34202 0 -0.939693
    outer loop
      vertex -5.2 -2.1 14.1503
      vertex -5.2 2.1 14.1503
      vertex -2.86379 2.1 13.3
    endloop
  endfacet
  facet normal -0.34202 0 -0.939693
    outer loop
      vertex -6.18697 -2.1 14.5095
      vertex -5.2 2.1 14.1503
      vertex -5.2 -2.1 14.1503
    endloop
  endfacet
  facet normal -0.34202 0 -0.939693
    outer loop
      vertex -5.2 2.1 14.1503
      vertex -6.18697 -2.1 14.5095
      vertex -6.18697 2.1 14.5095
    endloop
  endfacet
  facet normal -0 0 1
    outer loop
      vertex -1.2 2.1 14.8
      vertex 3.3 -2.1 14.8
      vertex 3.3 2.1 14.8
    endloop
  endfacet
  facet normal 0 0 1
    outer loop
      vertex 3.3 -2.1 14.8
      vertex -1.2 2.1 14.8
      vertex -1.2 -2.1 14.8
    endloop
  endfacet
  facet normal 0 0 1
    outer loop
      vertex 3.3 2.1 14.8
      vertex 4.8 5 14.8
      vertex 3.3 3.1 14.8
    endloop
  endfacet
  facet normal -0 0 1
    outer loop
      vertex -1.2 5 14.8
      vertex 3.3 3.1 14.8
      vertex 4.8 5 14.8
    endloop
  endfacet
  facet normal 0 0 1
    outer loop
      vertex 3.3 3.1 14.8
      vertex -1.2 5 14.8
      vertex -1.2 3.1 14.8
    endloop
  endfacet
  facet normal 0 0 1
    outer loop
      vertex 4.8 5 14.8
      vertex 3.3 2.1 14.8
      vertex 4.8 -5 14.8
    endloop
  endfacet
  facet normal -0 0 1
    outer loop
      vertex 3.3 -2.1 14.8
      vertex 4.8 -5 14.8
      vertex 3.3 2.1 14.8
    endloop
  endfacet
  facet normal -0 0 1
    outer loop
      vertex 3.3 -3.1 14.8
      vertex 4.8 -5 14.8
      vertex 3.3 -2.1 14.8
    endloop
  endfacet
  facet normal 0 0 1
    outer loop
      vertex -1.2 -5 14.8
      vertex 3.3 -3.1 14.8
      vertex -1.2 -3.1 14.8
    endloop
  endfacet
  facet normal 0 0 1
    outer loop
      vertex 3.3 -3.1 14.8
      vertex -1.2 -5 14.8
      vertex 4.8 -5 14.8
    endloop
  endfacet
  facet normal 1 -0 0
    outer loop
      vertex 4.8 -5 14.8
      vertex 4.8 5 3
      vertex 4.8 5 14.8
    endloop
  endfacet
  facet normal 1 0 0
    outer loop
      vertex 4.8 5 3
      vertex 4.8 -5 14.8
      vertex 4.8 -5 3
    endloop
  endfacet
  facet normal 0 -1 0
    outer loop
      vertex -1.2 -5 3
      vertex 4.8 -5 14.8
      vertex -1.2 -5 14.8
    endloop
  endfacet
  facet normal 0 -1 -0
    outer loop
      vertex 4.8 -5 14.8
      vertex -1.2 -5 3
      vertex 4.8 -5 3
    endloop
  endfacet
  facet normal 0 1 -0
    outer loop
      vertex 4.8 5 3
      vertex -1.2 5 14.8
      vertex 4.8 5 14.8
    endloop
  endfacet
  facet normal 0 1 0
    outer loop
      vertex -1.2 5 14.8
      vertex 4.8 5 3
      vertex -1.2 5 3
    endloop
  endfacet
  facet normal -1 0 0
    outer loop
      vertex 3.3 -3.1 12.1
      vertex 3.3 -2.1 14.8
      vertex 3.3 -2.1 12.1
    endloop
  endfacet
  facet normal -1 -0 0
    outer loop
      vertex 3.3 -2.1 14.8
      vertex 3.3 -3.1 12.1
      vertex 3.3 -3.1 14.8
    endloop
  endfacet
  facet normal 0 0 1
    outer loop
      vertex 3 -3 12.1
      vertex 3.3 -2.1 12.1
      vertex 3 -2.1 12.1
    endloop
  endfacet
  facet normal 0 0 1
    outer loop
      vertex 3.3 -2.1 12.1
      vertex 3 -3 12.1
      vertex 3.3 -3.1 12.1
    endloop
  endfacet
  facet normal 0 0 1
    outer loop
      vertex 2.6 -3.1 12.1
      vertex 3 -3 12.1
      vertex 2.6 -3 12.1
    endloop
  endfacet
  facet normal 0 0 1
    outer loop
      vertex 3 -3 12.1
      vertex 2.6 -3.1 12.1
      vertex 3.3 -3.1 12.1
    endloop
  endfacet
  facet normal 0 0 1
    outer loop
      vertex 2.6 -3.1 12.1
      vertex -1.2 -3.1 12.1
      vertex 3.3 -3.1 12.1
    endloop
  endfacet
  facet normal 0 1 -0
    outer loop
      vertex 3.3 -3.1 12.1
      vertex -1.2 -3.1 14.8
      vertex 3.3 -3.1 14.8
    endloop
  endfacet
  facet normal 0 1 0
    outer loop
      vertex -1.2 -3.1 14.8
      vertex 3.3 -3.1 12.1
      vertex -1.2 -3.1 12.1
    endloop
  endfacet
  facet normal -1 0 0
    outer loop
      vertex 3.3 2.1 12.1
      vertex 3.3 3.1 14.8
      vertex 3.3 3.1 12.1
    endloop
  endfacet
  facet normal -1 -0 0
    outer loop
      vertex 3.3 3.1 14.8
      vertex 3.3 2.1 12.1
      vertex 3.3 2.1 14.8
    endloop
  endfacet
  facet normal -0 0 1
    outer loop
      vertex 2.6 3.1 12.1
      vertex 3.3 2.1 12.1
      vertex 3.3 3.1 12.1
    endloop
  endfacet
  facet normal 0 0 1
    outer loop
      vertex 3.3 2.1 12.1
      vertex 2.6 3.1 12.1
      vertex 2.6 2.1 12.1
    endloop
  endfacet
endsolid OpenSCAD_Model
